<svg width="256" height="256" viewBox="0 0 64 64" xmlns="http://www.w3.org/2000/svg">
	<defs>
		<linearGradient id="mv" x1="0" y1="0" x2="1" y2="1">
			<stop offset="0" stop-color="#9900FF"/>
			<stop offset="1" stop-color="#FF00FF"/>
		</linearGradient>
	</defs>
	<rect width="64" height="64" rx="14" fill="url(#mv)"/>
	<g transform="translate(8 8.8) scale(1.288)">
		<path d="M32.3995 29.9534C34.5216 31.2593 37.2539 29.7325 37.2539 27.2407L37.2539 11.5985C37.2539 8.64003 33.572 7.27985 31.6486 9.52777L24.9245 17.3864C23.8157 18.6824 21.8828 18.8749 20.5402 17.8231L10.7296 10.1376L5.23272 5.52312C3.16029 3.78335 -0.000332049 5.25674 -0.000332167 7.96261L-0.000333052 28.2175C-0.000333151 30.4759 2.2848 32.0169 4.37854 31.1705L20.9915 24.4547C21.9298 24.0754 22.9926 24.1646 23.8545 24.695L32.3995 29.9534Z" fill="#ffffff"/>
	</g>
</svg>
