<svg width="255" height="62" viewBox="0 0 255 62" fill="none" xmlns="http://www.w3.org/2000/svg">
<path d="M44.4545 18.9091H31.6364C31.5455 17.8485 31.303 16.8864 30.9091 16.0227C30.5303 15.1591 30 14.4167 29.3182 13.7955C28.6515 13.1591 27.8409 12.6742 26.8864 12.3409C25.9318 11.9924 24.8485 11.8182 23.6364 11.8182C21.5152 11.8182 19.7197 12.3333 18.25 13.3636C16.7955 14.3939 15.6894 15.8712 14.9318 17.7955C14.1894 19.7197 13.8182 22.0303 13.8182 24.7273C13.8182 27.5758 14.197 29.9621 14.9545 31.8864C15.7273 33.7955 16.8409 35.2348 18.2955 36.2045C19.75 37.1591 21.5 37.6364 23.5455 37.6364C24.7121 37.6364 25.7576 37.4924 26.6818 37.2045C27.6061 36.9015 28.4091 36.4697 29.0909 35.9091C29.7727 35.3485 30.3258 34.6742 30.75 33.8864C31.1894 33.0833 31.4848 32.1818 31.6364 31.1818L44.4545 31.2727C44.303 33.2424 43.75 35.25 42.7955 37.2955C41.8409 39.3258 40.4848 41.2045 38.7273 42.9318C36.9848 44.6439 34.8258 46.0227 32.25 47.0682C29.6742 48.1136 26.6818 48.6364 23.2727 48.6364C19 48.6364 15.1667 47.7197 11.7727 45.8864C8.39394 44.053 5.7197 41.3561 3.75 37.7955C1.79545 34.2348 0.818182 29.8788 0.818182 24.7273C0.818182 19.5455 1.81818 15.1818 3.81818 11.6364C5.81818 8.07576 8.51515 5.38636 11.9091 3.56818C15.303 1.73485 19.0909 0.81818 23.2727 0.81818C26.2121 0.81818 28.9167 1.21969 31.3864 2.02272C33.8561 2.82576 36.0227 4 37.8864 5.54545C39.75 7.07576 41.25 8.96212 42.3864 11.2045C43.5227 13.447 44.2121 16.0152 44.4545 18.9091ZM60.0966 48.5455C57.8693 48.5455 55.8996 48.1818 54.1875 47.4545C52.4905 46.7121 51.1572 45.5909 50.1875 44.0909C49.2178 42.5909 48.733 40.6818 48.733 38.3636C48.733 36.4545 49.0587 34.8258 49.7102 33.4773C50.3617 32.1136 51.2708 31 52.4375 30.1364C53.6042 29.2727 54.9602 28.6136 56.5057 28.1591C58.0663 27.7045 59.7481 27.4091 61.5511 27.2727C63.5057 27.1212 65.0739 26.9394 66.2557 26.7273C67.4527 26.5 68.3163 26.1894 68.8466 25.7955C69.3769 25.3864 69.642 24.8485 69.642 24.1818V24.0909C69.642 23.1818 69.2936 22.4848 68.5966 22C67.8996 21.5152 67.0057 21.2727 65.9148 21.2727C64.7178 21.2727 63.7405 21.5379 62.983 22.0682C62.2405 22.5833 61.7936 23.3788 61.642 24.4545H50.0966C50.2481 22.3333 50.9223 20.3788 52.1193 18.5909C53.3314 16.7879 55.0966 15.3485 57.4148 14.2727C59.733 13.1818 62.6269 12.6364 66.0966 12.6364C68.5966 12.6364 70.839 12.9318 72.8239 13.5227C74.8087 14.0985 76.4981 14.9091 77.892 15.9545C79.286 16.9848 80.3466 18.197 81.0739 19.5909C81.8163 20.9697 82.1875 22.4697 82.1875 24.0909V48H70.4602V43.0909H70.1875C69.4905 44.3939 68.642 45.447 67.642 46.25C66.6572 47.053 65.5284 47.6364 64.2557 48C62.9981 48.3636 61.6117 48.5455 60.0966 48.5455ZM64.1875 40.6364C65.142 40.6364 66.036 40.4394 66.8693 40.0455C67.7178 39.6515 68.4072 39.0833 68.9375 38.3409C69.4678 37.5985 69.733 36.697 69.733 35.6364V32.7273C69.3996 32.8636 69.0436 32.9924 68.6648 33.1136C68.3011 33.2348 67.9072 33.3485 67.483 33.4545C67.0739 33.5606 66.6345 33.6591 66.1648 33.75C65.7102 33.8409 65.233 33.9242 64.733 34C63.7633 34.1515 62.9678 34.4015 62.3466 34.75C61.7405 35.0833 61.286 35.5 60.983 36C60.6951 36.4848 60.5511 37.0303 60.5511 37.6364C60.5511 38.6061 60.892 39.3485 61.5739 39.8636C62.2557 40.3788 63.1269 40.6364 64.1875 40.6364ZM88.1818 48V13.0909H100.364V19.7273H100.727C101.364 17.2727 102.371 15.4773 103.75 14.3409C105.144 13.2045 106.773 12.6364 108.636 12.6364C109.182 12.6364 109.72 12.6818 110.25 12.7727C110.795 12.8485 111.318 12.9621 111.818 13.1136V23.8182C111.197 23.6061 110.432 23.447 109.523 23.3409C108.614 23.2348 107.833 23.1818 107.182 23.1818C105.955 23.1818 104.848 23.4621 103.864 24.0227C102.894 24.5682 102.129 25.3409 101.568 26.3409C101.008 27.3258 100.727 28.4848 100.727 29.8182V48H88.1818ZM115.932 61.0909V13.0909H128.386V19.1818H128.659C129.114 18 129.78 16.9167 130.659 15.9318C131.538 14.9318 132.629 14.1364 133.932 13.5455C135.235 12.9394 136.75 12.6364 138.477 12.6364C140.78 12.6364 142.97 13.25 145.045 14.4773C147.136 15.7045 148.833 17.6364 150.136 20.2727C151.455 22.9091 152.114 26.3333 152.114 30.5455C152.114 34.5758 151.485 37.9167 150.227 40.5682C148.985 43.2197 147.318 45.197 145.227 46.5C143.152 47.803 140.871 48.4545 138.386 48.4545C136.75 48.4545 135.288 48.1894 134 47.6591C132.727 47.1136 131.636 46.3788 130.727 45.4545C129.833 44.5152 129.144 43.4545 128.659 42.2727H128.477V61.0909H115.932ZM128.205 30.5455C128.205 32.2424 128.424 33.7121 128.864 34.9545C129.318 36.1818 129.955 37.1364 130.773 37.8182C131.606 38.4848 132.598 38.8182 133.75 38.8182C134.902 38.8182 135.879 38.4924 136.682 37.8409C137.5 37.1742 138.121 36.2273 138.545 35C138.985 33.7576 139.205 32.2727 139.205 30.5455C139.205 28.8182 138.985 27.3409 138.545 26.1136C138.121 24.8712 137.5 23.9242 136.682 23.2727C135.879 22.6061 134.902 22.2727 133.75 22.2727C132.598 22.2727 131.606 22.6061 130.773 23.2727C129.955 23.9242 129.318 24.8712 128.864 26.1136C128.424 27.3409 128.205 28.8182 128.205 30.5455ZM167.097 48.5455C164.869 48.5455 162.9 48.1818 161.188 47.4545C159.491 46.7121 158.157 45.5909 157.188 44.0909C156.218 42.5909 155.733 40.6818 155.733 38.3636C155.733 36.4545 156.059 34.8258 156.71 33.4773C157.362 32.1136 158.271 31 159.438 30.1364C160.604 29.2727 161.96 28.6136 163.506 28.1591C165.066 27.7045 166.748 27.4091 168.551 27.2727C170.506 27.1212 172.074 26.9394 173.256 26.7273C174.453 26.5 175.316 26.1894 175.847 25.7955C176.377 25.3864 176.642 24.8485 176.642 24.1818V24.0909C176.642 23.1818 176.294 22.4848 175.597 22C174.9 21.5152 174.006 21.2727 172.915 21.2727C171.718 21.2727 170.741 21.5379 169.983 22.0682C169.241 22.5833 168.794 23.3788 168.642 24.4545H157.097C157.248 22.3333 157.922 20.3788 159.119 18.5909C160.331 16.7879 162.097 15.3485 164.415 14.2727C166.733 13.1818 169.627 12.6364 173.097 12.6364C175.597 12.6364 177.839 12.9318 179.824 13.5227C181.809 14.0985 183.498 14.9091 184.892 15.9545C186.286 16.9848 187.347 18.197 188.074 19.5909C188.816 20.9697 189.188 22.4697 189.188 24.0909V48H177.46V43.0909H177.188C176.491 44.3939 175.642 45.447 174.642 46.25C173.657 47.053 172.528 47.6364 171.256 48C169.998 48.3636 168.612 48.5455 167.097 48.5455ZM171.188 40.6364C172.142 40.6364 173.036 40.4394 173.869 40.0455C174.718 39.6515 175.407 39.0833 175.938 38.3409C176.468 37.5985 176.733 36.697 176.733 35.6364V32.7273C176.4 32.8636 176.044 32.9924 175.665 33.1136C175.301 33.2348 174.907 33.3485 174.483 33.4545C174.074 33.5606 173.634 33.6591 173.165 33.75C172.71 33.8409 172.233 33.9242 171.733 34C170.763 34.1515 169.968 34.4015 169.347 34.75C168.741 35.0833 168.286 35.5 167.983 36C167.695 36.4848 167.551 37.0303 167.551 37.6364C167.551 38.6061 167.892 39.3485 168.574 39.8636C169.256 40.3788 170.127 40.6364 171.188 40.6364ZM195.182 48V13.0909H207.364V19.7273H207.727C208.364 17.2727 209.371 15.4773 210.75 14.3409C212.144 13.2045 213.773 12.6364 215.636 12.6364C216.182 12.6364 216.72 12.6818 217.25 12.7727C217.795 12.8485 218.318 12.9621 218.818 13.1136V23.8182C218.197 23.6061 217.432 23.447 216.523 23.3409C215.614 23.2348 214.833 23.1818 214.182 23.1818C212.955 23.1818 211.848 23.4621 210.864 24.0227C209.894 24.5682 209.129 25.3409 208.568 26.3409C208.008 27.3258 207.727 28.4848 207.727 29.8182V48H195.182ZM237.659 48.6364C233.932 48.6364 230.72 47.9242 228.023 46.5C225.341 45.0606 223.273 43 221.818 40.3182C220.379 37.6212 219.659 34.3939 219.659 30.6364C219.659 27.0303 220.386 23.8788 221.841 21.1818C223.295 18.4848 225.348 16.3864 228 14.8864C230.652 13.3864 233.78 12.6364 237.386 12.6364C240.023 12.6364 242.409 13.0455 244.545 13.8636C246.682 14.6818 248.508 15.8712 250.023 17.4318C251.538 18.9773 252.705 20.8561 253.523 23.0682C254.341 25.2803 254.75 27.7727 254.75 30.5455V33.4545H223.568V26.5455H243.205C243.189 25.5455 242.932 24.6667 242.432 23.9091C241.947 23.1364 241.288 22.5379 240.455 22.1136C239.636 21.6742 238.705 21.4545 237.659 21.4545C236.644 21.4545 235.712 21.6742 234.864 22.1136C234.015 22.5379 233.333 23.1288 232.818 23.8864C232.318 24.6439 232.053 25.5303 232.023 26.5455V34C232.023 35.1212 232.258 36.1212 232.727 37C233.197 37.8788 233.871 38.5682 234.75 39.0682C235.629 39.5682 236.689 39.8182 237.932 39.8182C238.795 39.8182 239.583 39.697 240.295 39.4545C241.023 39.2121 241.644 38.8636 242.159 38.4091C242.674 37.9394 243.053 37.3788 243.295 36.7273H254.75C254.356 39.1515 253.424 41.2576 251.955 43.0455C250.485 44.8182 248.538 46.197 246.114 47.1818C243.705 48.1515 240.886 48.6364 237.659 48.6364Z" fill="url(#paint0_radial_1205_490)"/>
<defs>
<radialGradient id="paint0_radial_1205_490" cx="0" cy="0" r="1" gradientUnits="userSpaceOnUse" gradientTransform="translate(172.798 63.5) rotate(20.9834) scale(168.949 508.964)">
<stop offset="0.038961" stop-color="#6416E4"/>
<stop offset="0.661891" stop-color="#D628DA" stop-opacity="0.76"/>
</radialGradient>
</defs>
</svg>
