<svg width="209" height="124" viewBox="0 0 209 124" fill="none" xmlns="http://www.w3.org/2000/svg">
<path d="M2 0.454544H17.7273L28.5455 26.8182H29.0909L39.9091 0.454544H55.6364V47H43.2727V20.0909H42.9091L32.5455 46.6364H25.0909L14.7273 19.9091H14.3636V47H2V0.454544ZM78.625 47.6364C74.8371 47.6364 71.5947 46.8864 68.8977 45.3864C66.2008 43.8712 64.1326 41.7652 62.6932 39.0682C61.2538 36.3561 60.5341 33.2121 60.5341 29.6364C60.5341 26.0606 61.2538 22.9242 62.6932 20.2273C64.1326 17.5152 66.2008 15.4091 68.8977 13.9091C71.5947 12.3939 74.8371 11.6364 78.625 11.6364C82.4129 11.6364 85.6553 12.3939 88.3523 13.9091C91.0492 15.4091 93.1174 17.5152 94.5568 20.2273C95.9962 22.9242 96.7159 26.0606 96.7159 29.6364C96.7159 33.2121 95.9962 36.3561 94.5568 39.0682C93.1174 41.7652 91.0492 43.8712 88.3523 45.3864C85.6553 46.8864 82.4129 47.6364 78.625 47.6364ZM78.7159 38.3636C79.7765 38.3636 80.6932 38.0076 81.4659 37.2955C82.2386 36.5833 82.8371 35.5682 83.2614 34.25C83.6856 32.9318 83.8977 31.3636 83.8977 29.5455C83.8977 27.7121 83.6856 26.1439 83.2614 24.8409C82.8371 23.5227 82.2386 22.5076 81.4659 21.7955C80.6932 21.0833 79.7765 20.7273 78.7159 20.7273C77.5947 20.7273 76.6326 21.0833 75.8295 21.7955C75.0265 22.5076 74.4129 23.5227 73.9886 24.8409C73.5644 26.1439 73.3523 27.7121 73.3523 29.5455C73.3523 31.3636 73.5644 32.9318 73.9886 34.25C74.4129 35.5682 75.0265 36.5833 75.8295 37.2955C76.6326 38.0076 77.5947 38.3636 78.7159 38.3636ZM135.926 12.0909L124.199 47H109.653L97.9261 12.0909H111.108L116.744 35.1818H117.108L122.744 12.0909H135.926ZM155.159 47.6364C151.432 47.6364 148.22 46.9242 145.523 45.5C142.841 44.0606 140.773 42 139.318 39.3182C137.879 36.6212 137.159 33.3939 137.159 29.6364C137.159 26.0303 137.886 22.8788 139.341 20.1818C140.795 17.4848 142.848 15.3864 145.5 13.8864C148.152 12.3864 151.28 11.6364 154.886 11.6364C157.523 11.6364 159.909 12.0455 162.045 12.8636C164.182 13.6818 166.008 14.8712 167.523 16.4318C169.038 17.9773 170.205 19.8561 171.023 22.0682C171.841 24.2803 172.25 26.7727 172.25 29.5455V32.4545H141.068V25.5455H160.705C160.689 24.5455 160.432 23.6667 159.932 22.9091C159.447 22.1364 158.788 21.5379 157.955 21.1136C157.136 20.6742 156.205 20.4545 155.159 20.4545C154.144 20.4545 153.212 20.6742 152.364 21.1136C151.515 21.5379 150.833 22.1288 150.318 22.8864C149.818 23.6439 149.553 24.5303 149.523 25.5455V33C149.523 34.1212 149.758 35.1212 150.227 36C150.697 36.8788 151.371 37.5682 152.25 38.0682C153.129 38.5682 154.189 38.8182 155.432 38.8182C156.295 38.8182 157.083 38.697 157.795 38.4545C158.523 38.2121 159.144 37.8636 159.659 37.4091C160.174 36.9394 160.553 36.3788 160.795 35.7273H172.25C171.856 38.1515 170.924 40.2576 169.455 42.0455C167.985 43.8182 166.038 45.197 163.614 46.1818C161.205 47.1515 158.386 47.6364 155.159 47.6364ZM177.733 47V40.0909L193.006 21.8182V21.6364H178.278V12.0909H207.824V19.7273L193.915 37.2727V37.4545H208.369V47H177.733ZM14.0909 124H0.454545L15.8182 77.4545H33.0909L48.4545 124H34.8182L24.6364 90.2727H24.2727L14.0909 124ZM11.5455 105.636H37.1818V115.091H11.5455V105.636ZM65.5739 77.4545V124H52.9375V77.4545H65.5739Z" fill="url(#paint0_radial_1205_488)"/>
<defs>
<radialGradient id="paint0_radial_1205_488" cx="0" cy="0" r="1" gradientUnits="userSpaceOnUse" gradientTransform="translate(151.527 140) rotate(41.3176) scale(183.269 818.827)">
<stop offset="0.038961" stop-color="#6416E4"/>
<stop offset="0.661891" stop-color="#D628DA" stop-opacity="0.76"/>
</radialGradient>
</defs>
</svg>
