<svg width="282" height="48" viewBox="0 0 282 48" fill="none" xmlns="http://www.w3.org/2000/svg">
<path d="M0.727273 10.6364V0.454544H41.1818V10.6364H27.1818V47H14.7273V10.6364H0.727273ZM57.7841 47.6364C54.0568 47.6364 50.8447 46.9242 48.1477 45.5C45.4659 44.0606 43.3977 42 41.9432 39.3182C40.5038 36.6212 39.7841 33.3939 39.7841 29.6364C39.7841 26.0303 40.5114 22.8788 41.9659 20.1818C43.4205 17.4848 45.4735 15.3864 48.125 13.8864C50.7765 12.3864 53.9053 11.6364 57.5114 11.6364C60.1477 11.6364 62.5341 12.0455 64.6705 12.8636C66.8068 13.6818 68.6326 14.8712 70.1477 16.4318C71.6629 17.9773 72.8295 19.8561 73.6477 22.0682C74.4659 24.2803 74.875 26.7727 74.875 29.5455V32.4545H43.6932V25.5455H63.3295C63.3144 24.5455 63.0568 23.6667 62.5568 22.9091C62.072 22.1364 61.4129 21.5379 60.5795 21.1136C59.7614 20.6742 58.8295 20.4545 57.7841 20.4545C56.7689 20.4545 55.8371 20.6742 54.9886 21.1136C54.1402 21.5379 53.4583 22.1288 52.9432 22.8864C52.4432 23.6439 52.178 24.5303 52.1477 25.5455V33C52.1477 34.1212 52.3826 35.1212 52.8523 36C53.322 36.8788 53.9962 37.5682 54.875 38.0682C55.7538 38.5682 56.8144 38.8182 58.0568 38.8182C58.9205 38.8182 59.7083 38.697 60.4205 38.4545C61.1477 38.2121 61.7689 37.8636 62.2841 37.4091C62.7992 36.9394 63.178 36.3788 63.4205 35.7273H74.875C74.4811 38.1515 73.5492 40.2576 72.0795 42.0455C70.6098 43.8182 68.6629 45.197 66.2386 46.1818C63.8295 47.1515 61.0114 47.6364 57.7841 47.6364ZM100.812 12.0909V21.1818H77.8125V12.0909H100.812ZM82.267 3.72727H94.8125V35.7727C94.8125 36.2576 94.8958 36.6667 95.0625 37C95.2292 37.3182 95.4867 37.5606 95.8352 37.7273C96.1837 37.8788 96.6307 37.9545 97.1761 37.9545C97.5549 37.9545 97.9943 37.9091 98.4943 37.8182C99.0095 37.7273 99.3883 37.6515 99.6307 37.5909L101.449 46.4091C100.888 46.5758 100.085 46.7803 99.0398 47.0227C98.0095 47.2652 96.7822 47.4242 95.358 47.5C92.4792 47.6515 90.0625 47.3561 88.108 46.6136C86.1534 45.8561 84.6837 44.6667 83.6989 43.0455C82.714 41.4242 82.2367 39.3939 82.267 36.9545V3.72727ZM130.591 47H116.955L132.318 0.454544H149.591L164.955 47H151.318L141.136 13.2727H140.773L130.591 47ZM128.045 28.6364H153.682V38.0909H128.045V28.6364ZM180.915 10.6364V0.454544H221.369V10.6364H207.369V47H194.915V10.6364H180.915ZM237.972 47.6364C234.244 47.6364 231.032 46.9242 228.335 45.5C225.653 44.0606 223.585 42 222.131 39.3182C220.691 36.6212 219.972 33.3939 219.972 29.6364C219.972 26.0303 220.699 22.8788 222.153 20.1818C223.608 17.4848 225.661 15.3864 228.312 13.8864C230.964 12.3864 234.093 11.6364 237.699 11.6364C240.335 11.6364 242.722 12.0455 244.858 12.8636C246.994 13.6818 248.82 14.8712 250.335 16.4318C251.85 17.9773 253.017 19.8561 253.835 22.0682C254.653 24.2803 255.062 26.7727 255.062 29.5455V32.4545H223.881V25.5455H243.517C243.502 24.5455 243.244 23.6667 242.744 22.9091C242.259 22.1364 241.6 21.5379 240.767 21.1136C239.949 20.6742 239.017 20.4545 237.972 20.4545C236.956 20.4545 236.025 20.6742 235.176 21.1136C234.328 21.5379 233.646 22.1288 233.131 22.8864C232.631 23.6439 232.366 24.5303 232.335 25.5455V33C232.335 34.1212 232.57 35.1212 233.04 36C233.509 36.8788 234.184 37.5682 235.062 38.0682C235.941 38.5682 237.002 38.8182 238.244 38.8182C239.108 38.8182 239.896 38.697 240.608 38.4545C241.335 38.2121 241.956 37.8636 242.472 37.4091C242.987 36.9394 243.366 36.3788 243.608 35.7273H255.062C254.669 38.1515 253.737 40.2576 252.267 42.0455C250.797 43.8182 248.85 45.197 246.426 46.1818C244.017 47.1515 241.199 47.6364 237.972 47.6364ZM281 12.0909V21.1818H258V12.0909H281ZM262.455 3.72727H275V35.7727C275 36.2576 275.083 36.6667 275.25 37C275.417 37.3182 275.674 37.5606 276.023 37.7273C276.371 37.8788 276.818 37.9545 277.364 37.9545C277.742 37.9545 278.182 37.9091 278.682 37.8182C279.197 37.7273 279.576 37.6515 279.818 37.5909L281.636 46.4091C281.076 46.5758 280.273 46.7803 279.227 47.0227C278.197 47.2652 276.97 47.4242 275.545 47.5C272.667 47.6515 270.25 47.3561 268.295 46.6136C266.341 45.8561 264.871 44.6667 263.886 43.0455C262.902 41.4242 262.424 39.3939 262.455 36.9545V3.72727Z" fill="url(#paint0_radial_1205_489)"/>
<defs>
<radialGradient id="paint0_radial_1205_489" cx="0" cy="0" r="1" gradientUnits="userSpaceOnUse" gradientTransform="translate(190.671 62.5) rotate(19.2783) scale(183.247 514.547)">
<stop offset="0.038961" stop-color="#6416E4"/>
<stop offset="0.661891" stop-color="#D628DA" stop-opacity="0.76"/>
</radialGradient>
</defs>
</svg>
