<svg width="128" height="44" viewBox="0 0 128 44" fill="none" xmlns="http://www.w3.org/2000/svg">
<path d="M36.3077 36.6255C38.695 38.0994 41.7734 36.3821 41.7734 33.5765L41.7734 16.0143C41.7734 12.6831 37.6253 11.1545 35.4637 13.6891L27.9586 22.4894C26.7107 23.9528 24.53 24.17 23.0179 22.9815L12.0314 14.3466L5.8914 9.17524C3.56101 7.21248 -0.000216081 8.86911 -0.000216214 11.9159L-0.000217206 34.6799C-0.000217317 37.2223 2.57382 38.956 4.92981 38.0005L23.528 30.4574C24.5862 30.0282 25.7856 30.1291 26.7572 30.729L36.3077 36.6255Z" fill="white"/>
<path d="M49.9131 33V19.2482H53.6428V33H49.9131ZM58.8816 33V24.8856C58.8816 24.0884 58.6254 23.4715 58.1129 23.0349C57.6194 22.5794 57.0025 22.3516 56.2622 22.3516C55.7687 22.3516 55.3227 22.456 54.9241 22.6648C54.5255 22.8546 54.2123 23.1393 53.9845 23.519C53.7567 23.8986 53.6428 24.3541 53.6428 24.8856L52.1908 24.1738C52.1908 23.1109 52.4186 22.1903 52.8741 21.4121C53.3486 20.6338 53.9845 20.0359 54.7817 19.6184C55.5789 19.1818 56.4805 18.9635 57.4865 18.9635C58.4356 18.9635 59.2992 19.1818 60.0774 19.6184C60.8557 20.0359 61.4725 20.6338 61.9281 21.4121C62.3836 22.1713 62.6114 23.0919 62.6114 24.1738V33H58.8816ZM67.8502 33V24.8856C67.8502 24.0884 67.5939 23.4715 67.0814 23.0349C66.5879 22.5794 65.971 22.3516 65.2308 22.3516C64.7563 22.3516 64.3102 22.456 63.8926 22.6648C63.494 22.8546 63.1808 23.1393 62.9531 23.519C62.7253 23.8986 62.6114 24.3541 62.6114 24.8856L60.476 24.3731C60.552 23.2722 60.8462 22.3232 61.3586 21.5259C61.8711 20.7098 62.545 20.0834 63.3801 19.6468C64.2153 19.1913 65.1454 18.9635 66.1703 18.9635C67.1953 18.9635 68.1159 19.1818 68.9321 19.6184C69.7483 20.0359 70.3936 20.6433 70.8682 21.4405C71.3427 22.2377 71.58 23.1868 71.58 24.2877V33H67.8502ZM80.0698 33.2847C78.6842 33.2847 77.4315 32.9715 76.3116 32.3452C75.2107 31.6998 74.3281 30.8362 73.6637 29.7542C73.0184 28.6533 72.6957 27.4291 72.6957 26.0814C72.6957 24.7337 73.0184 23.5285 73.6637 22.4655C74.3091 21.3836 75.1917 20.5294 76.3116 19.9031C77.4315 19.2577 78.6747 18.935 80.0413 18.935C81.4459 18.935 82.6987 19.2577 83.7996 19.9031C84.9195 20.5294 85.8021 21.3836 86.4475 22.4655C87.0928 23.5285 87.4155 24.7337 87.4155 26.0814C87.4155 27.4291 87.0928 28.6533 86.4475 29.7542C85.8021 30.8362 84.9195 31.6998 83.7996 32.3452C82.6987 32.9715 81.4554 33.2847 80.0698 33.2847ZM80.0413 29.8112C80.7436 29.8112 81.3605 29.6593 81.892 29.3556C82.4425 29.033 82.86 28.5964 83.1448 28.0459C83.4484 27.4765 83.6003 26.8312 83.6003 26.1099C83.6003 25.3886 83.4484 24.7527 83.1448 24.2023C82.8411 23.6518 82.4235 23.2248 81.892 22.9211C81.3605 22.5984 80.7436 22.437 80.0413 22.437C79.358 22.437 78.7506 22.5984 78.2192 22.9211C77.6877 23.2248 77.2701 23.6518 76.9664 24.2023C76.6627 24.7527 76.5109 25.3886 76.5109 26.1099C76.5109 26.8312 76.6627 27.4765 76.9664 28.0459C77.2701 28.5964 77.6877 29.033 78.2192 29.3556C78.7506 29.6593 79.358 29.8112 80.0413 29.8112ZM92.8731 33L86.8087 19.2482H90.9086L95.2648 30.5799H93.2433L97.6279 19.2482H101.585L95.5495 33H92.8731ZM108.47 33.2847C107.027 33.2847 105.746 32.981 104.626 32.3736C103.506 31.7473 102.614 30.8931 101.95 29.8112C101.304 28.7293 100.982 27.4955 100.982 26.1099C100.982 24.7432 101.295 23.5285 101.921 22.4655C102.566 21.3836 103.44 20.5294 104.54 19.9031C105.641 19.2577 106.866 18.935 108.213 18.935C109.542 18.935 110.709 19.2387 111.715 19.8461C112.74 20.4345 113.538 21.2507 114.107 22.2947C114.695 23.3197 114.99 24.487 114.99 25.7967C114.99 26.0434 114.971 26.2997 114.933 26.5654C114.914 26.8122 114.866 27.0969 114.79 27.4196L103.231 27.448V24.6578L113.053 24.6294L111.544 25.7967C111.507 24.9805 111.355 24.2972 111.089 23.7467C110.842 23.1963 110.472 22.7787 109.979 22.494C109.504 22.1903 108.916 22.0384 108.213 22.0384C107.473 22.0384 106.828 22.2093 106.277 22.5509C105.727 22.8736 105.3 23.3386 104.996 23.946C104.711 24.5344 104.569 25.2367 104.569 26.0529C104.569 26.8881 104.721 27.6189 105.024 28.2452C105.347 28.8526 105.803 29.3272 106.391 29.6688C106.98 29.9915 107.663 30.1528 108.441 30.1528C109.143 30.1528 109.779 30.039 110.349 29.8112C110.918 29.5644 111.412 29.2038 111.829 28.7293L114.022 30.9216C113.357 31.6998 112.541 32.2882 111.573 32.6868C110.624 33.0854 109.589 33.2847 108.47 33.2847ZM115.332 30.8646L122.62 21.3836H127.119L119.83 30.8646H115.332ZM115.332 33V30.8646L118.293 29.7542H126.948V33H115.332ZM115.844 22.494V19.2482H127.119V21.3836L124.129 22.494H115.844Z" fill="white"/>
</svg>
