<svg id="Слой_1" data-name="Слой 1" xmlns="http://www.w3.org/2000/svg" viewBox="0 0 64.94 40"><defs><style>.cls-1{fill:#9a9a9a;fill-rule:evenodd;}</style></defs><path class="cls-1" d="M64.72,20.12c-1-3.54-4.29-6.76-12.31-6.76-6.63,0-9.83,1.26-10.79,2.11a2.09,2.09,0,0,0-.91,2V36.49A3.2,3.2,0,0,0,43.9,39.7h3.77a3.2,3.2,0,0,0,3.19-3.21V19.82c0-1.38,4-1.92,4,1,0,.86,0,15.65,0,15.65A3.19,3.19,0,0,0,58,39.7h3.77a3.2,3.2,0,0,0,3.19-3.21V22.69a12.25,12.25,0,0,0-.23-2.58Zm-53.66-7C3.22,13.07.71,15.5.34,16.15a2.6,2.6,0,0,0,2,3.49c1.36.09,6-2.48,11.29-.95,1.86.53,1.58,2.85,1.58,3.59s-.46,1-1.46,1S0,21.74,0,31.5C0,38.93,8.62,40,12.18,40s12.18.13,12.18-3.75V21.54c0-4.19-4.25-8.47-13.29-8.47ZM15,33.48c0,1-.62,2-2.53,2-1.45,0-2.7-1.29-2.7-4.15,0-2.56,1.22-4.14,2.7-4.14C14.18,27.15,15,28.24,15,29Z"/><path id="a" class="cls-1" d="M38.9,0H25.29a1.56,1.56,0,0,0-1.54,1.5V11.83a2,2,0,0,0,2.06,2V15.9c0,1.56,1.05,1.6,2.86.55l4.7-2.67h5.44c1.5,0,1.75-1.62,1.75-1.62V1.84A1.82,1.82,0,0,0,38.9,0Zm-.49,11.63h-4a4.76,4.76,0,0,0-2.42.62l-4.35,2.6V13.51a1.82,1.82,0,0,0-1.83-2V2h12.6Z"/><path id="a-2" data-name="a" class="cls-1" d="M38.9,0H25.29a1.56,1.56,0,0,0-1.54,1.5V11.83a2,2,0,0,0,2.06,2V15.9c0,1.56,1.05,1.6,2.86.55l4.7-2.67h5.44c1.5,0,1.75-1.62,1.75-1.62V1.84A1.82,1.82,0,0,0,38.9,0Zm-.49,11.63h-4a4.76,4.76,0,0,0-2.42.62l-4.35,2.6V13.51a1.82,1.82,0,0,0-1.83-2V2h12.6Z"/><path id="c" class="cls-1" d="M36.47,7.89H28.08V9.45h8.39Z"/><path id="c-2" data-name="c" class="cls-1" d="M36.47,7.89H28.08V9.45h8.39Z"/><path id="d" class="cls-1" d="M36.47,4.78H28.08V6.35h8.39Z"/><path id="d-2" data-name="d" class="cls-1" d="M36.47,4.78H28.08V6.35h8.39Z"/><path class="cls-1" d="M34.71,16.39a4.78,4.78,0,0,0-1.82.29L28.52,19a1.78,1.78,0,0,0-1,1.56V36.5a3.2,3.2,0,0,0,3.19,3.21h3.77a3.2,3.2,0,0,0,3.19-3.21V18c0-.92-.43-1.65-1.33-1.65Z"/></svg>