<svg id="Слой_1" data-name="Слой 1" xmlns="http://www.w3.org/2000/svg" viewBox="0 0 222.89 40"><defs><style>.cls-1{fill:#9a9a9a;}</style></defs><path class="cls-1" d="M50.89,12.78h7V31h4.34V12.78h7V9H50.89Z"/><path class="cls-1" d="M86.18,17.82h-9.5V9H72.23V30.84h4.45V21.57h9.5v9.27h4.45V9.15H86.18Z"/><path class="cls-1" d="M98.61,21.57h9.49V18.06H98.61V12.9h10.67V9.15H94.15V31h15.48V27.2h-11Z"/><path class="cls-1" d="M133.55,19.46a5.21,5.21,0,0,0,3.28-5c0-3.16-2.35-5.51-6.1-5.51h-9.61V30.72H131.2c3.75,0,6.57-2.35,6.57-6A6,6,0,0,0,133.55,19.46Zm-8.33-6.91h4.11c1.87,0,3.16.93,3.16,2.81a2.62,2.62,0,0,1-2.93,2.81h-4.1V12.55Zm4.69,15H125.1V21.46h4.58c2.11,0,3.4,1.05,3.4,3.16C133.08,26.5,131.91,27.55,129.91,27.55Z"/><path class="cls-1" d="M144.92,9.15H140.7V31h15V27.08H145V9.15Z"/><path class="cls-1" d="M167.55,8.91c-6.22,0-10.79,4.34-10.79,11.14s4.57,11,10.79,11,10.79-4.34,10.79-11.14S173.65,8.91,167.55,8.91Zm0,18.29c-3.52,0-6.33-2.69-6.33-7.27s2.81-7.27,6.33-7.27,6.33,2.7,6.33,7.27S171.07,27.2,167.55,27.2Z"/><path class="cls-1" d="M191.12,12.66a5.15,5.15,0,0,1,5.51,4.46H201c-.46-4.81-3.51-8.33-9.84-8.33-6,0-10.2,4.46-10.2,11.14s4.33,11.14,10.2,11.14c6.33,0,9.38-3.52,9.84-8.32h-4.33c-.36,2.34-1.76,4.45-5.4,4.45-3.4,0-6-2.69-6-7.27S187.83,12.66,191.12,12.66Z"/><path class="cls-1" d="M214.21,18.41l8-9.38H217l-8.91,10.79V9h-4.34V30.84h4.34V25.09l3.16-3.52L217.85,31h5Z"/><path class="cls-1" d="M18.41,39.86.7,32.6c-.58-.36-.7-.36-.7-1.06V8.09C0,7.5.12,7.39.7,7L18.41.23a2.56,2.56,0,0,1,1.29,0L37.4,7c.59.36.71.47.71,1.06V31.66c0,.58-.12.7-.71,1.05L19.7,39.86C19.11,40,19,40.1,18.41,39.86Zm.58-2,15.48-6.1L19,26.15,3.52,31.66ZM2.11,30.13l14-5.16-2.58-1c-.11-.12-.35-.35-.35-.47V16.18c0-.35.12-.47.35-.47l2.58-1.05L2.11,9.38Zm33.89,0V9.5L22,14.66l2.58,1.05c.12.12.35.35.35.47v7.27c0,.12-.11.47-.35.47L22,25ZM19,23.8l3.76-1.52V17.12L19,15.59l-3.75,1.53v5.16Zm0-10.2L34.47,8,19,2,3.52,7.86Z"/><path class="cls-1" d="M37.29,7.15,19.58.12C19.46.12,19.11,0,19,0s-.46,0-.58.12L.7,7.15c-.35,0-.58.47-.58.94V31.66c0,.47.35.7.58.94l17.47,7.15c.12,0,.47.11.59.11a1.13,1.13,0,0,0,.59-.11L36.82,32.6a.93.93,0,0,0,.58-.94V8.09C37.87,7.62,37.52,7.15,37.29,7.15ZM19,1.76l16,6.1L19,13.6,3.05,7.86Zm0,13.72,3.87,1.64v5.39L19,24.15l-3.86-1.64V17.12ZM1.88,9.26l14.53,5.51L13.48,16a.37.37,0,0,0-.35.35v7.15a1.12,1.12,0,0,0,.12.35L16.18,25,1.76,30.37V9.26ZM19,38.11,3.17,31.66l15.94-5.75,15.83,5.75Zm17.12-7.74L21.57,25l2.94-1.17c.11,0,.11-.12.11-.35V16.06a1.3,1.3,0,0,0-.11-.35l-2.94-1.17L36.11,9Z"/></svg>