<svg id="Слой_1" data-name="Слой 1" xmlns="http://www.w3.org/2000/svg" viewBox="0 0 217.08 40"><defs><style>.cls-1{fill:#9a9a9a;}</style></defs><path class="cls-1" d="M0,0H15.91a11.31,11.31,0,0,1,7,2,7.94,7.94,0,0,1,2.87,6.4c0,3.12-1.27,5.05-3.79,6.23v.17a7.77,7.77,0,0,1,5.3,7.75,9.52,9.52,0,0,1-3.53,7.83c-1.86,1.35-4.21,1.94-7.41,1.94H0ZM14.32,12.63a2.67,2.67,0,0,0,2.94-2.86C17.26,7.92,16,7,14.23,7H8.76v5.56h5.56Zm.75,12.55a3.12,3.12,0,0,0,3.37-3.29,3.07,3.07,0,0,0-3.37-3.28H8.84v6.65h6.23Z"/><path class="cls-1" d="M28.71,0h8.34V32.42H28.71Z"/><path class="cls-1" d="M38.73,20.88c0-7.32,4.72-12.21,12.05-12.21s11.95,5,11.95,12.21S58.1,33.09,50.78,33.09,38.73,28.21,38.73,20.88Zm15.67,0c0-4-1.27-6.56-3.79-6.56s-3.71,2.52-3.71,6.56,1.18,6.66,3.71,6.66S54.4,24.93,54.4,20.88Z"/><path class="cls-1" d="M63.66,20.88c0-7.32,4.72-12.21,12-12.21s11.87,4.89,11.87,12.21S82.94,33.09,75.62,33.09,63.66,28.21,63.66,20.88Zm15.66,0c0-4-1.26-6.56-3.79-6.56s-3.7,2.52-3.7,6.56,1.18,6.66,3.7,6.66S79.32,24.93,79.32,20.88Z"/><path class="cls-1" d="M89.26,9.26H97v3.46h.16a7.34,7.34,0,0,1,7-4.13,6.38,6.38,0,0,1,6.23,4h.17a7.69,7.69,0,0,1,7.16-4c5.39,0,7.66,4,7.66,9.26V32.34H117.3V19.28c0-2.35-.76-3.87-2.78-3.87s-3,1.85-3,4.38V32.34h-8.08V19.28c0-2.35-.76-3.87-2.78-3.87s-3,1.85-3,4.38V32.34H89.26Z"/><path class="cls-1" d="M135.57,29.3h-.08v3h-7.75V0h8.08V11.62H136a7.68,7.68,0,0,1,6.57-3.12c5.81,0,9.18,5.23,9.18,12.21,0,7.84-3.62,12.38-9.68,12.38A7.14,7.14,0,0,1,135.57,29.3Zm7.83-8.67c0-3.7-1.34-6.15-3.79-6.15s-4,2.45-4,6.15,1.6,6.15,4,6.15S143.4,24.42,143.4,20.63Z"/><path class="cls-1" d="M152.67,20.8c0-7.24,4.8-12.21,11.7-12.21a11.11,11.11,0,0,1,8.08,3c2.7,2.61,3.88,6.65,3.79,11.37H160.75c.34,2.86,1.68,4.38,4.13,4.38a3.17,3.17,0,0,0,3.2-2.19h7.83c-1.35,5.3-5.48,7.91-11.29,7.91C157.47,33,152.67,28.12,152.67,20.8Zm8.08-2.44h7.41c-.17-2.78-1.68-4.21-3.62-4.21C162.27,14.06,161,15.66,160.75,18.36Z"/><path class="cls-1" d="M185.42,13.22h.17c1.68-3.2,3.87-4.46,6.65-4.46a2.49,2.49,0,0,1,1.35.25v7.07h-.17c-4.8-.84-7.58,1.43-7.58,6.66v9.68h-8.16V9.26h7.74Z"/><path class="cls-1" d="M194.43,32.42h7.83c.34,1,1.35,1.94,3.29,1.94,2.61,0,3.53-1.6,3.53-4.05V28.63h-.16a6.93,6.93,0,0,1-5.56,2.61c-5,0-9.35-3.7-9.35-10.95,0-6.65,3.54-11.79,8.93-11.79a6.83,6.83,0,0,1,6.23,3.2h.17V9.18h7.74v20c0,3.7-1.26,6.57-3.2,8.25S209,40,205.72,40C199.48,40.08,195.19,37.56,194.43,32.42Zm15-12.46c0-2.87-1.35-5.22-3.7-5.22S202,16.76,202,20s1.43,5.3,3.71,5.3S209.42,23,209.42,20Z"/></svg>