<svg id="Слой_1" data-name="Слой 1" xmlns="http://www.w3.org/2000/svg" viewBox="0 0 170.82 40"><defs><style>.cls-1{fill:#9a9a9a;}</style></defs><g id="Page-1"><g id="CT-logo-BlackYellow-tag"><g id="Atoms_Icons_logos_CT-GY-icon" data-name="Atoms/Icons/logos/CT-GY-icon"><g id="Group"><path id="Shape" class="cls-1" d="M24.8,29.1l-7.12,3.1v-.31a24,24,0,0,1-4.33.62c-6.72,0-12-3.58-12.1-7.74V23.23c2.19,3.19,6.69,5.35,12.1,5.27a17.6,17.6,0,0,0,5.27-.63l.63-1.54a20.45,20.45,0,0,1-5.9.94c-6.72,0-12-3.5-12.1-7.74V18.28c2.19,3,6.69,5.09,12.1,4.95A15.06,15.06,0,0,0,20.18,22l.32-1.54A14.68,14.68,0,0,1,13.38,22c-6.72.08-12-3.42-12.1-7.75V13c2.19,3,6.69,5.18,12.1,5.27a19.45,19.45,0,0,0,8.37-2.16l.31-1.86A16,16,0,0,1,13.38,17c-6.72-.14-12-3.67-12.1-8,.06-4.19,5.38-7.69,12.1-7.75,4,.06,7.72,1.46,9.91,3.73l.23.37h1.56L24.85,5C22.66,2,18.25,0,13.38,0,5.92,0,0,4,0,8.94V25.05c.26,4.79,6,8.69,13.32,8.69C18.14,33.77,22.49,31.86,24.8,29.1Z"/><path id="Shape-2" data-name="Shape" class="cls-1" d="M21.89,40,24.4,29.35l-7.2,3.13L21.58,14H13.15L15.35,5h26.9L40.06,14H31.29l-1.88,5L39.12,15Zm4.39-12.81L25,33.45,35.36,17.82,26.9,21.58l3.76-8.77h8.46l1.56-6.57H16.26l-1.57,6.57h8.46L19.07,30.32Z"/></g></g><path id="Shape-3" data-name="Shape" class="cls-1" d="M60.1,11.05v0a2.9,2.9,0,0,1-.91,2.34,3.69,3.69,0,0,1-2.59.85,3.63,3.63,0,0,1-2.71-1.08,3.88,3.88,0,0,1-1-2.79V8.54a4,4,0,0,1,1-2.79,3.54,3.54,0,0,1,2.65-1.08,4.09,4.09,0,0,1,2.68.82,2.82,2.82,0,0,1,.94,2.34v0H58.31a1.86,1.86,0,0,0-.43-1.34,1.87,1.87,0,0,0-1.34-.43,1.48,1.48,0,0,0-1.31.69,3,3,0,0,0-.48,1.73v1.88a3.13,3.13,0,0,0,.48,1.77,1.89,1.89,0,0,0,2.65.25,1.86,1.86,0,0,0,.43-1.34H60.1Zm10.31-.74a4,4,0,0,1-1.09,2.84,3.72,3.72,0,0,1-2.81,1.11,3.77,3.77,0,0,1-2.82-1.11,4,4,0,0,1-1.09-2.84V8.63a4,4,0,0,1,1.09-2.85,3.73,3.73,0,0,1,2.79-1.14A3.67,3.67,0,0,1,69.3,5.78a3.87,3.87,0,0,1,1.08,2.85v1.68ZM68.53,8.6A2.83,2.83,0,0,0,68,6.8a1.86,1.86,0,0,0-1.51-.71A1.71,1.71,0,0,0,65,6.8a2.9,2.9,0,0,0-.54,1.8v1.68A2.87,2.87,0,0,0,65,12.1a1.93,1.93,0,0,0,3,0,2.84,2.84,0,0,0,.54-1.82Zm6.72,5.52H73.37V4.78h1.88Zm10.79,0H84.16L80.4,7.83h0v6.29H78.49V4.78h1.88l3.76,6.29h0V4.78H86Zm9.42-7.88H92.78v7.88H90.9V6.24H88.28V4.78h7.18ZM103.2,10H99.73V12.7h4.13v1.42h-6V4.78h6V6.24h-4.1V8.57h3.47V10Zm5.21,2.68h4.19v1.42h-6.07V4.78h1.88V12.7ZM120.57,10H117.1V12.7h4.12v1.42h-6V4.78h6V6.24h-4.1V8.57h3.48V10Zm10.5,2.85a3.42,3.42,0,0,1-1.31,1,4.85,4.85,0,0,1-2.22.43,3.65,3.65,0,0,1-3.84-3.81v-2a3.71,3.71,0,0,1,1-2.76,3.61,3.61,0,0,1,2.68-1.08,3.81,3.81,0,0,1,2.62.82,2.67,2.67,0,0,1,.88,2.17v0h-1.76a1.6,1.6,0,0,0-.43-1.17,1.72,1.72,0,0,0-1.25-.43,1.77,1.77,0,0,0-1.4.66,2.76,2.76,0,0,0-.51,1.71v2a2.66,2.66,0,0,0,.54,1.74,1.76,1.76,0,0,0,1.45.65,3.57,3.57,0,0,0,1.06-.14,1.58,1.58,0,0,0,.59-.34V10.51h-1.79V9.2h3.67v3.67Zm4.84-2.48v3.73H134V4.78h3.24a4,4,0,0,1,2.51.74,2.51,2.51,0,0,1,.91,2,2.15,2.15,0,0,1-.37,1.26,3,3,0,0,1-1.11.85,2,2,0,0,1,1.19.83,2.67,2.67,0,0,1,.37,1.42v.68a2.78,2.78,0,0,0,.12.83,1.08,1.08,0,0,0,.37.63v.14h-1.94a1.13,1.13,0,0,1-.34-.69,4.84,4.84,0,0,1-.09-.91v-.65a1.34,1.34,0,0,0-1.45-1.48h-1.54Zm0-1.42h1.34a1.79,1.79,0,0,0,1.17-.34,1.24,1.24,0,0,0,.4-1,1.35,1.35,0,0,0-.4-1,1.52,1.52,0,0,0-1.14-.37h-1.37V9Zm12.73,3.16h-3l-.62,2h-2l3.16-9.34h1.91l3.13,9.34h-2Zm-2.56-1.48h2.1l-1-3.3h0Zm9.31.08v3.39h-1.88V4.78h3.59a3.72,3.72,0,0,1,2.53.83,2.7,2.7,0,0,1,.91,2.16,2.82,2.82,0,0,1-.91,2.17,3.72,3.72,0,0,1-2.53.82h-1.71Zm0-1.42h1.71a1.58,1.58,0,0,0,1.19-.43,1.55,1.55,0,0,0,.4-1.08,1.61,1.61,0,0,0-.4-1.11,1.54,1.54,0,0,0-1.19-.43h-1.71Zm15.43,4.81h-1.88V10.25h-3.82v3.87h-1.88V4.78h1.88v4h3.82v-4h1.88Z"/><g id="Tag_The-future-of-money-_-dark-grey" data-name="Tag/The-future-of-money-—-dark-grey"><path id="The-future-of-money" class="cls-1" d="M56.28,29.38H55.12V23.23H53v-1h5.38v1H56.28Zm7.83,0H63V26.05a1.43,1.43,0,0,0-.26-.94,1,1,0,0,0-.8-.31,1.27,1.27,0,0,0-1,.42,2.37,2.37,0,0,0-.34,1.46v2.67H59.36v-7.6H60.5v1.94c0,.31,0,.62-.06,1h.09a1.5,1.5,0,0,1,.65-.59,2,2,0,0,1,1-.23,1.74,1.74,0,0,1,2,2Zm4,.09a2.58,2.58,0,0,1-2-.74,2.74,2.74,0,0,1-.72-2,3.1,3.1,0,0,1,.66-2.07,2.52,2.52,0,0,1,3.5-.12,2.43,2.43,0,0,1,.63,1.8v.62H66.56a1.84,1.84,0,0,0,.43,1.2,1.5,1.5,0,0,0,1.14.43,4,4,0,0,0,.88-.09,4.22,4.22,0,0,0,.88-.31v.94a3.53,3.53,0,0,1-.85.28A4.51,4.51,0,0,1,68.07,29.47Zm-.2-4.73a1.17,1.17,0,0,0-.88.34,1.71,1.71,0,0,0-.4,1H69a1.58,1.58,0,0,0-.31-1A1.08,1.08,0,0,0,67.87,24.74Zm8.91.09H75.47v4.55H74.31V24.83h-.89v-.55l.89-.34V23.6a2,2,0,0,1,.45-1.42,1.82,1.82,0,0,1,1.37-.46,3.54,3.54,0,0,1,1.19.2L77,22.8a3,3,0,0,0-.83-.14.7.7,0,0,0-.56.23,1.2,1.2,0,0,0-.18.71v.34h1.31v.89Zm4.76,4.55-.17-.71h-.06a1.79,1.79,0,0,1-.68.6,2.3,2.3,0,0,1-1,.22A2.1,2.1,0,0,1,78.15,29a1.93,1.93,0,0,1-.48-1.48V24h1.16V27.3a1.48,1.48,0,0,0,.26.94,1,1,0,0,0,.8.32,1.27,1.27,0,0,0,1-.43,2.36,2.36,0,0,0,.34-1.45V24h1.17v5.41Zm4.55-.85a2.88,2.88,0,0,0,.86-.15v.86a1.7,1.7,0,0,1-.49.14,4.07,4.07,0,0,1-.62.06c-1.09,0-1.63-.57-1.63-1.71v-2.9h-.74v-.52l.8-.42.4-1.14h.71v1.19h1.54v.89H85.38v2.9a.87.87,0,0,0,.2.63A.66.66,0,0,0,86.09,28.53Zm5.72.85-.17-.71h0a1.75,1.75,0,0,1-.69.6,2.22,2.22,0,0,1-1,.22A2.1,2.1,0,0,1,88.43,29a2,2,0,0,1-.49-1.48V24h1.17V27.3a1.48,1.48,0,0,0,.26.94,1,1,0,0,0,.79.32,1.28,1.28,0,0,0,1.06-.43,2.43,2.43,0,0,0,.34-1.45V24h1.17v5.41Zm5.3-5.52a3.88,3.88,0,0,1,.57.05L97.57,25a3.19,3.19,0,0,0-.52-.06,1.42,1.42,0,0,0-1.11.46,1.64,1.64,0,0,0-.42,1.16v2.82H94.38V24h.91l.14.94h.06a2.28,2.28,0,0,1,.71-.77A1.66,1.66,0,0,1,97.11,23.86Zm3.73,5.61a2.58,2.58,0,0,1-2-.74,2.74,2.74,0,0,1-.72-2,3.1,3.1,0,0,1,.66-2.07,2.52,2.52,0,0,1,3.5-.12,2.43,2.43,0,0,1,.63,1.8v.62H99.33a1.84,1.84,0,0,0,.43,1.2,1.48,1.48,0,0,0,1.14.43,4,4,0,0,0,.88-.09,4.43,4.43,0,0,0,.88-.31v.94a3.53,3.53,0,0,1-.85.28A4.71,4.71,0,0,1,100.84,29.47Zm-.2-4.73a1.17,1.17,0,0,0-.88.34,1.71,1.71,0,0,0-.4,1h2.45a1.53,1.53,0,0,0-.32-1A1.13,1.13,0,0,0,100.64,24.74Zm11,1.91a3,3,0,0,1-.68,2.08,2.5,2.5,0,0,1-1.88.74,2.57,2.57,0,0,1-1.34-.35,2.08,2.08,0,0,1-.88-1,3.43,3.43,0,0,1-.32-1.48,2.86,2.86,0,0,1,.69-2,2.45,2.45,0,0,1,1.9-.74,2.33,2.33,0,0,1,1.85.77A2.85,2.85,0,0,1,111.63,26.65Zm-3.93,0c0,1.25.46,1.88,1.4,1.88s1.36-.63,1.36-1.88S110,24.8,109.1,24.8a1.23,1.23,0,0,0-1.06.48A2.29,2.29,0,0,0,107.7,26.65Zm8-1.82h-1.31v4.55H113.2V24.83h-.89v-.55l.89-.34V23.6a2,2,0,0,1,.45-1.42,1.82,1.82,0,0,1,1.37-.46,3.54,3.54,0,0,1,1.19.2l-.31.88a3,3,0,0,0-.83-.14.73.73,0,0,0-.57.23,1.22,1.22,0,0,0-.17.71v.34h1.31v.89Zm8.09,4.55h-1.17V26.05a1.71,1.71,0,0,0-.23-.94.86.86,0,0,0-.74-.31,1.11,1.11,0,0,0-1,.42,2.73,2.73,0,0,0-.31,1.46v2.7H119.2V24h.91l.17.71h.06a1.47,1.47,0,0,1,.66-.59,1.94,1.94,0,0,1,.94-.2,1.64,1.64,0,0,1,1.65.85h.08a1.82,1.82,0,0,1,.69-.63,2.22,2.22,0,0,1,1-.22,1.94,1.94,0,0,1,1.43.48,2.21,2.21,0,0,1,.45,1.48v3.53h-1.14V26.05a1.63,1.63,0,0,0-.23-.94.89.89,0,0,0-.74-.31,1.09,1.09,0,0,0-1,.42,2.27,2.27,0,0,0-.32,1.29v2.87Zm9.79-2.73a3,3,0,0,1-.68,2.08,2.48,2.48,0,0,1-1.88.74,2.6,2.6,0,0,1-1.34-.35,2.08,2.08,0,0,1-.88-1,3.43,3.43,0,0,1-.31-1.48,2.85,2.85,0,0,1,.68-2,2.46,2.46,0,0,1,1.91-.74,2.36,2.36,0,0,1,1.85.77A3,3,0,0,1,133.55,26.65Zm-3.93,0c0,1.25.46,1.88,1.4,1.88s1.36-.63,1.36-1.88-.45-1.85-1.36-1.85a1.23,1.23,0,0,0-1.06.48A2.36,2.36,0,0,0,129.62,26.65Zm10,2.73h-1.16V26.05a1.43,1.43,0,0,0-.26-.94,1,1,0,0,0-.8-.31,1.23,1.23,0,0,0-1,.42,2.6,2.6,0,0,0-.34,1.46v2.7h-1.14V24h.91l.17.71H136a1.77,1.77,0,0,1,.68-.59,2.16,2.16,0,0,1,1-.2c1.31,0,1.93.65,1.93,2Zm4,.09a2.58,2.58,0,0,1-2-.74,2.74,2.74,0,0,1-.72-2,3.1,3.1,0,0,1,.66-2.07,2.52,2.52,0,0,1,3.5-.12,2.43,2.43,0,0,1,.63,1.8v.62h-3.62a1.84,1.84,0,0,0,.43,1.2,1.5,1.5,0,0,0,1.14.43,4,4,0,0,0,.88-.09,4.93,4.93,0,0,0,.88-.31v.94a3.53,3.53,0,0,1-.85.28A4.71,4.71,0,0,1,143.6,29.47Zm-.23-4.73a1.17,1.17,0,0,0-.88.34,1.71,1.71,0,0,0-.4,1h2.45a1.53,1.53,0,0,0-.31-1A1.08,1.08,0,0,0,143.37,24.74ZM146,24h1.25l1.12,3.08a5.78,5.78,0,0,1,.34,1.22h0a3.14,3.14,0,0,1,.17-.65c.08-.26.48-1.48,1.25-3.65h1.25l-2.3,6.12A2.2,2.2,0,0,1,147,31.77a3.5,3.5,0,0,1-.74-.08v-.91a4.83,4.83,0,0,0,.6,0,1.2,1.2,0,0,0,1.16-1l.2-.51Z"/></g></g></g></svg>