<svg width="336" height="177" viewBox="0 0 336 177" fill="none" xmlns="http://www.w3.org/2000/svg">
<g filter="url(#filter0_f_1483_31)">
<path d="M18.1733 89V16.2727H65.4744V27.3168H31.348V47.0611H63.0241V58.1051H31.348V77.956H65.7585V89H18.1733ZM127.069 34.4545L107.644 89H93.4396L74.0149 34.4545H87.7223L100.258 74.973H100.826L113.397 34.4545H127.069ZM150.098 90.1009C146.642 90.1009 143.528 89.4853 140.759 88.2543C138.012 86.9995 135.834 85.1529 134.224 82.7145C132.638 80.276 131.845 77.2694 131.845 73.6946C131.845 70.617 132.413 68.072 133.55 66.0597C134.686 64.0473 136.237 62.4375 138.202 61.2301C140.167 60.0227 142.38 59.1113 144.842 58.4957C147.328 57.8565 149.897 57.3949 152.548 57.1108C155.744 56.7794 158.337 56.4834 160.325 56.223C162.314 55.9389 163.758 55.5128 164.658 54.9446C165.581 54.3527 166.043 53.4413 166.043 52.2102V51.9972C166.043 49.322 165.25 47.2505 163.663 45.7827C162.077 44.3149 159.793 43.581 156.81 43.581C153.661 43.581 151.163 44.2675 149.317 45.6406C147.494 47.0137 146.263 48.6354 145.624 50.5057L133.621 48.8011C134.568 45.4867 136.13 42.7169 138.308 40.4915C140.486 38.2424 143.15 36.5616 146.298 35.4489C149.447 34.3125 152.927 33.7443 156.739 33.7443C159.366 33.7443 161.982 34.0521 164.587 34.6676C167.191 35.2831 169.57 36.3011 171.724 37.7216C173.879 39.1184 175.607 41.0241 176.909 43.4389C178.235 45.8537 178.898 48.8722 178.898 52.4943V89H166.54V81.5071H166.114C165.332 83.0223 164.232 84.4427 162.811 85.7685C161.414 87.0705 159.651 88.1241 157.52 88.929C155.413 89.7102 152.939 90.1009 150.098 90.1009ZM153.436 80.6548C156.017 80.6548 158.254 80.1458 160.148 79.1278C162.042 78.0862 163.498 76.7131 164.516 75.0085C165.557 73.304 166.078 71.4455 166.078 69.4332V63.0057C165.676 63.3371 164.989 63.6449 164.018 63.929C163.071 64.2131 162.006 64.4616 160.822 64.6747C159.639 64.8878 158.467 65.0772 157.307 65.2429C156.147 65.4086 155.141 65.5507 154.288 65.669C152.371 65.9294 150.654 66.3556 149.139 66.9474C147.624 67.5393 146.429 68.3679 145.553 69.4332C144.677 70.4749 144.239 71.8243 144.239 73.4815C144.239 75.849 145.103 77.6364 146.831 78.8438C148.559 80.0511 150.761 80.6548 153.436 80.6548ZM80.4247 110.811H67.1435C66.7647 108.633 66.0663 106.704 65.0483 105.023C64.0303 103.318 62.7637 101.874 61.2486 100.69C59.7334 99.5066 58.0052 98.6188 56.0639 98.027C54.1463 97.4115 52.0748 97.1037 49.8494 97.1037C45.8958 97.1037 42.392 98.098 39.3381 100.087C36.2841 102.052 33.893 104.94 32.1648 108.751C30.4366 112.539 29.5724 117.168 29.5724 122.636C29.5724 128.2 30.4366 132.887 32.1648 136.699C33.9167 140.487 36.3078 143.351 39.3381 145.293C42.392 147.21 45.884 148.169 49.8139 148.169C51.992 148.169 54.0279 147.885 55.9219 147.317C57.8395 146.725 59.5559 145.861 61.071 144.724C62.6098 143.588 63.9001 142.191 64.9418 140.534C66.0071 138.877 66.741 136.983 67.1435 134.852L80.4247 134.923C79.9276 138.38 78.8504 141.623 77.1932 144.653C75.5597 147.684 73.4171 150.359 70.7656 152.679C68.1141 154.975 65.0128 156.775 61.4616 158.077C57.9105 159.355 53.9688 159.994 49.6364 159.994C43.2443 159.994 37.5388 158.515 32.5199 155.555C27.5009 152.596 23.5473 148.323 20.6591 142.736C17.7708 137.149 16.3267 130.449 16.3267 122.636C16.3267 114.8 17.7827 108.1 20.6946 102.537C23.6065 96.9498 27.572 92.6766 32.5909 89.7173C37.6098 86.758 43.2917 85.2784 49.6364 85.2784C53.6847 85.2784 57.4489 85.8466 60.929 86.983C64.4091 88.1193 67.5104 89.7884 70.233 91.9901C72.9555 94.1681 75.1927 96.8433 76.9446 100.016C78.7202 103.164 79.8802 106.763 80.4247 110.811ZM115.714 160.065C110.387 160.065 105.771 158.893 101.865 156.55C97.9585 154.206 94.9281 150.927 92.7738 146.713C90.6431 142.499 89.5778 137.575 89.5778 131.94C89.5778 126.306 90.6431 121.37 92.7738 117.132C94.9281 112.894 97.9585 109.604 101.865 107.26C105.771 104.916 110.387 103.744 115.714 103.744C121.041 103.744 125.657 104.916 129.564 107.26C133.47 109.604 136.488 112.894 138.619 117.132C140.773 121.37 141.85 126.306 141.85 131.94C141.85 137.575 140.773 142.499 138.619 146.713C136.488 150.927 133.47 154.206 129.564 156.55C125.657 158.893 121.041 160.065 115.714 160.065ZM115.785 149.767C118.673 149.767 121.088 148.974 123.029 147.388C124.971 145.778 126.415 143.624 127.362 140.925C128.333 138.226 128.818 135.219 128.818 131.905C128.818 128.567 128.333 125.548 127.362 122.849C126.415 120.127 124.971 117.961 123.029 116.351C121.088 114.741 118.673 113.936 115.785 113.936C112.826 113.936 110.364 114.741 108.399 116.351C106.458 117.961 105.002 120.127 104.031 122.849C103.084 125.548 102.61 128.567 102.61 131.905C102.61 135.219 103.084 138.226 104.031 140.925C105.002 143.624 106.458 145.778 108.399 147.388C110.364 148.974 112.826 149.767 115.785 149.767ZM173.003 159.959C168.718 159.959 164.883 158.858 161.497 156.656C158.112 154.455 155.437 151.259 153.472 147.068C151.507 142.878 150.524 137.788 150.524 131.798C150.524 125.738 151.518 120.624 153.507 116.457C155.519 112.267 158.23 109.107 161.639 106.976C165.048 104.821 168.848 103.744 173.038 103.744C176.234 103.744 178.862 104.289 180.922 105.378C182.982 106.443 184.615 107.733 185.822 109.249C187.03 110.74 187.965 112.149 188.628 113.474H189.161V86.2727H202.051V159H189.409V150.406H188.628C187.965 151.732 187.006 153.141 185.751 154.632C184.497 156.1 182.839 157.355 180.78 158.396C178.72 159.438 176.128 159.959 173.003 159.959ZM176.589 149.412C179.312 149.412 181.632 148.678 183.55 147.21C185.467 145.719 186.923 143.647 187.918 140.996C188.912 138.344 189.409 135.255 189.409 131.727C189.409 128.2 188.912 125.134 187.918 122.53C186.947 119.926 185.503 117.902 183.585 116.457C181.691 115.013 179.359 114.291 176.589 114.291C173.725 114.291 171.334 115.037 169.416 116.528C167.499 118.02 166.054 120.08 165.084 122.707C164.113 125.335 163.628 128.342 163.628 131.727C163.628 135.136 164.113 138.179 165.084 140.854C166.078 143.505 167.534 145.6 169.452 147.139C171.393 148.654 173.772 149.412 176.589 149.412ZM239.897 160.065C234.429 160.065 229.706 158.929 225.728 156.656C221.775 154.36 218.733 151.116 216.602 146.926C214.471 142.712 213.406 137.752 213.406 132.047C213.406 126.436 214.471 121.512 216.602 117.274C218.756 113.013 221.763 109.698 225.622 107.331C229.481 104.94 234.014 103.744 239.223 103.744C242.584 103.744 245.757 104.289 248.74 105.378C251.746 106.443 254.398 108.1 256.694 110.349C259.014 112.598 260.837 115.463 262.163 118.943C263.489 122.4 264.152 126.519 264.152 131.301V135.243H219.443V126.578H251.829C251.806 124.116 251.273 121.926 250.231 120.009C249.19 118.067 247.734 116.54 245.863 115.428C244.017 114.315 241.862 113.759 239.4 113.759C236.772 113.759 234.464 114.398 232.475 115.676C230.487 116.931 228.936 118.588 227.824 120.648C226.734 122.684 226.178 124.921 226.154 127.359V134.923C226.154 138.096 226.734 140.818 227.895 143.091C229.055 145.34 230.676 147.068 232.76 148.276C234.843 149.459 237.281 150.051 240.075 150.051C241.945 150.051 243.638 149.791 245.153 149.27C246.668 148.725 247.982 147.932 249.095 146.891C250.208 145.849 251.048 144.559 251.616 143.02L263.619 144.369C262.861 147.542 261.417 150.312 259.287 152.679C257.18 155.023 254.481 156.846 251.19 158.148C247.899 159.426 244.135 160.065 239.897 160.065ZM318.138 118.872L306.419 120.151C306.088 118.967 305.508 117.854 304.679 116.812C303.874 115.771 302.785 114.93 301.412 114.291C300.039 113.652 298.358 113.332 296.369 113.332C293.694 113.332 291.445 113.912 289.622 115.072C287.823 116.232 286.935 117.736 286.959 119.582C286.935 121.169 287.515 122.459 288.699 123.453C289.906 124.447 291.895 125.264 294.665 125.903L303.969 127.892C309.13 129.005 312.965 130.768 315.474 133.183C318.008 135.598 319.286 138.759 319.31 142.665C319.286 146.098 318.28 149.128 316.291 151.756C314.326 154.36 311.592 156.396 308.088 157.864C304.584 159.331 300.56 160.065 296.014 160.065C289.338 160.065 283.964 158.669 279.892 155.875C275.82 153.058 273.393 149.14 272.612 144.121L285.148 142.913C285.716 145.375 286.923 147.234 288.77 148.489C290.616 149.743 293.019 150.371 295.979 150.371C299.033 150.371 301.483 149.743 303.33 148.489C305.2 147.234 306.135 145.683 306.135 143.837C306.135 142.274 305.531 140.984 304.324 139.966C303.14 138.948 301.294 138.167 298.784 137.622L289.48 135.669C284.248 134.58 280.377 132.745 277.868 130.165C275.358 127.561 274.116 124.27 274.139 120.293C274.116 116.931 275.027 114.019 276.874 111.557C278.744 109.071 281.336 107.153 284.651 105.804C287.989 104.431 291.836 103.744 296.192 103.744C302.584 103.744 307.615 105.106 311.284 107.828C314.977 110.551 317.262 114.232 318.138 118.872Z" fill="url(#paint0_linear_1483_31)"/>
</g>
<defs>
<filter id="filter0_f_1483_31" x="0.32666" y="0.27272" width="334.983" height="175.793" filterUnits="userSpaceOnUse" color-interpolation-filters="sRGB">
<feFlood flood-opacity="0" result="BackgroundImageFix"/>
<feBlend mode="normal" in="SourceGraphic" in2="BackgroundImageFix" result="shape"/>
<feGaussianBlur stdDeviation="8" result="effect1_foregroundBlur_1483_31"/>
</filter>
<linearGradient id="paint0_linear_1483_31" x1="11" y1="178" x2="367.53" y2="163.972" gradientUnits="userSpaceOnUse">
<stop stop-color="#FC4A1A"/>
<stop offset="1" stop-color="#F7B733"/>
</linearGradient>
</defs>
</svg>
