<svg id="Слой_1" data-name="Слой 1" xmlns="http://www.w3.org/2000/svg" viewBox="0 0 152.83 40"><defs><style>.cls-1{fill:#9a9a9a;}</style></defs><path class="cls-1" d="M14.75,3.73H18.1a11.28,11.28,0,0,1,6,.76,10.66,10.66,0,0,1,4.81,6.43c.5,1.41.5,1.41,1.71.91h.94V.68H.07v2h1.3A3.75,3.75,0,0,1,4.3,4C5.51,6,5.71,8.13,5.71,19.44c0,12-.26,14.94-1.41,16.44a3.17,3.17,0,0,1-2.43,1.29c-1.8.32-1.8.29-1.8,1.09a1.28,1.28,0,0,0,0,.82H20a1.84,1.84,0,0,0,0-1.68,10.33,10.33,0,0,0-1.47-.29,9.62,9.62,0,0,1-1.58-.32A5.32,5.32,0,0,1,14.75,32a69,69,0,0,1-.44-8.42V21.26h1.18a15.5,15.5,0,0,1,4.34.47,5.42,5.42,0,0,1,2.53,3.87l.26.91h1.79v-13H22.77l-.26,1.26a5.22,5.22,0,0,1-2.68,3.87,4.83,4.83,0,0,1-2.14.15H14.31V15.62c0-3.29.18-10.22.3-11.3ZM152.16,27a10.7,10.7,0,0,0-6.08-4.61,14.55,14.55,0,0,1-5.25-2.93,3,3,0,0,1-.86-2.62,3.62,3.62,0,0,1,4.55-3.43,7.38,7.38,0,0,1,5.2,5.52c.47,1.32.53,1.32,1.38,1l.53-.21V12.39l-.38-.18a22.84,22.84,0,0,0-9-1.23,10.54,10.54,0,0,0-7,2.94,8.1,8.1,0,0,0-2.56,6.34,7,7,0,0,0,2,4.81,11.84,11.84,0,0,0,5,2.94c4.55,1.79,5.87,2.94,5.87,5a3.88,3.88,0,0,1-2.93,3.85,7.41,7.41,0,0,1-3.11,0,9.07,9.07,0,0,1-5.5-6.2l-.38-.94H133a2.3,2.3,0,0,0-.73.18H132v8.34h.5a30.37,30.37,0,0,0,6.1,1.35h2.94a11.56,11.56,0,0,0,3.79-.36,9.14,9.14,0,0,0,6.93-5.87,6.62,6.62,0,0,0,.52-2.64A7.26,7.26,0,0,0,152.16,27ZM124.5,11.83a13.52,13.52,0,0,0-11.07.27,12.9,12.9,0,0,0-6.72,8,15.4,15.4,0,0,0-.79,5.87,15.83,15.83,0,0,0,.26,3.23,13,13,0,0,0,10.54,10.51,20.1,20.1,0,0,0,5.14,0,14.22,14.22,0,0,0,5-1.9A8.85,8.85,0,0,0,130,34.88a1.43,1.43,0,0,0-.7-.91,3.69,3.69,0,0,0-.94.5,8.46,8.46,0,0,1-4.93,1.38,7.85,7.85,0,0,1-6.26-2.47,7.14,7.14,0,0,1-1.5-2,13.66,13.66,0,0,1-1.43-5.88V24.37h16.26v-.59a12.92,12.92,0,0,0,0-1.76A11.75,11.75,0,0,0,124.5,11.83ZM116.31,22h-2.06V20.26c.68-4.44,2.35-7.08,4.41-7.08s2.93,2.62,3.32,7.4v1.35h-1.77ZM74.09,10.86a6.26,6.26,0,0,0-2.94.62A9.88,9.88,0,0,0,66.6,16l-.38.71V10.86h-.14c-.36,0-11.22,2.18-11.57,2.32s-.24.18-.24.71,0,.61.24.64l1.14.24a2.11,2.11,0,0,1,1.65.85c.73,1,.88,2.67.88,9.92a58.09,58.09,0,0,1-.41,9.78,2.43,2.43,0,0,1-2,1.91l-1,.2h-.38v.83a1.14,1.14,0,0,0,0,.85H70.77v-.85a2.08,2.08,0,0,0,0-.86A15.17,15.17,0,0,1,67.84,37a2.92,2.92,0,0,1-1.56-2.93A103.65,103.65,0,0,1,66,23.58c.06-3.82,0-4.06.32-4.32a5.32,5.32,0,0,1,3.44-1.09,7.63,7.63,0,0,1,3.34.86,5.16,5.16,0,0,0,1.15.44s2.93-7.11,2.93-7.43A3.46,3.46,0,0,0,74.09,10.86ZM54.3,23.19a13.19,13.19,0,0,0-6-10.45,15.26,15.26,0,0,0-13.74-.38A13.3,13.3,0,0,0,28.08,20a19.69,19.69,0,0,0,0,11.28,12.21,12.21,0,0,0,3.15,5.31A11.87,11.87,0,0,0,38,39.87a29,29,0,0,0,4.93,0,15.83,15.83,0,0,0,1.79-.38A13.08,13.08,0,0,0,54.1,29.07,25.72,25.72,0,0,0,54.3,23.19ZM42.09,37.87c-2.94.88-5.14-2-5.87-7.95a55,55,0,0,1,0-9.43c.58-4.81,2.08-7.25,4.4-7.25a3,3,0,0,1,2.47,1.09Q46,17.27,46,26.07a21.81,21.81,0,0,1-1.52,9.75,4.51,4.51,0,0,1-2.41,1.91ZM94.94,11.45a9.51,9.51,0,0,0-2.5,0,11.12,11.12,0,0,0-4.61,1l-.91.38V6.46a43.53,43.53,0,0,0,0-6.46c-.35,0-11.57,2.14-11.74,2.23a.89.89,0,0,0,0,.68c0,.61,0,.58,1.32.88a3.53,3.53,0,0,1,1,.41,3.57,3.57,0,0,1,1.09,2A33.24,33.24,0,0,1,79,13V38.75l.8.18c1.17.27,4.49.82,5.58.94a41.61,41.61,0,0,0,6.51,0,13.29,13.29,0,0,0,11-8.25A20.25,20.25,0,0,0,104,27.16a26.25,26.25,0,0,0-.21-6.2,11.3,11.3,0,0,0-8.8-9.51Zm-7.7,25.93C87.24,37,87,24.13,87,19V15l.85-.2a6.27,6.27,0,0,1,1.73,0,2.89,2.89,0,0,1,1.82.41,8.81,8.81,0,0,1,3.79,6.69,32.89,32.89,0,0,1,0,6.43,14.12,14.12,0,0,1-3.41,8.43,4.11,4.11,0,0,1-2.08,1.06,5.38,5.38,0,0,1-1.79,0c-.56,0-.56-.18-.56-.41h-.12Z"/></svg>