<svg id="Слой_1" data-name="Слой 1" xmlns="http://www.w3.org/2000/svg" viewBox="0 0 164.71 40"><defs><style>.cls-1,.cls-2{fill:#9a9a9a;}.cls-2{fill-rule:evenodd;}</style></defs><path class="cls-1" d="M154.44,30.22c-9.66,0-12.9-11.33-6.78-17.5a9.31,9.31,0,0,1,7.08-3h10V29.62a9.76,9.76,0,0,1-5.22,9C156.37,40.31,152,40,148.33,40v-3.6c2.88,0,7.59.26,9.67-.94a5.71,5.71,0,0,0,2.89-5.38V13.3h-6.15c-8.76,0-8.79,13.33-.3,13.33a8.22,8.22,0,0,0,4.92-1.54v3.84A9.88,9.88,0,0,1,154.44,30.22Z"/><path class="cls-1" d="M110.37,22V.4h3.78V22c0,3.69,1.52,4.48,4.82,4.48V30C113,30,110.37,28,110.37,22Z"/><path class="cls-1" d="M102.22,9.7h4.08l-5.08,8.84c5.4,1.46,5.16,6.62,5.16,11.45h-3.7c0-2.86.37-5.58-1.65-7.46-1.67-1.56-4.23-1.72-6.7-1.42V30H90.64V.4h3.69V17.77a13,13,0,0,1,3.53,0Z"/><path class="cls-1" d="M74.82,30V18.45c0-4.14.87-7,3.93-8.12,2.45-.9,5.22-.63,8.14-.63v3.56c-1.77,0-5.07-.25-6.49.32-1.62.66-1.89,2.36-1.89,4.87V30Z"/><path class="cls-1" d="M54.09,12.68a10.18,10.18,0,0,1,17.36,7.18c0,11.21-15.33,14-19.49,4A10.32,10.32,0,0,1,54.09,12.68Zm7.23.62c-8.37,0-8.37,13.13,0,13.13S69.7,13.3,61.32,13.3Z"/><path class="cls-1" d="M48.85,13.26H44V30H40.24V13.26H37.39L39.07,9.7h1.17c0-6,4.56-9.34,10.28-9.34V3.91C46.19,3.91,44,5.84,44,9.7h4.84Z"/><path class="cls-2" d="M26,26.63a27.88,27.88,0,0,1-5.23-.35,18.83,18.83,0,0,1-6.23-3.17c-1.46-1.07-2.89-2.17-4.38-3.18C7.37,18,3.6,18.19,0,18.13c0-.91,0-1.81,0-2.71S0,13.6,0,12.7c3.6-.07,7.37.15,10.14-1.81,1.49-1,2.92-2.11,4.38-3.17a18.67,18.67,0,0,1,6.23-3.18A27.88,27.88,0,0,1,26,4.19,36.33,36.33,0,0,0,23.36,1.4c-.26-.26-.48-.57-.26-.95a.81.81,0,0,1,.79-.38C25,.05,26.08,0,27.19,0a3,3,0,0,1,2.2.94c1.6,1.65,3.2,3.25,4.79,4.89.86.87.83,1.53,0,2.43-1.57,1.62-3.2,3.22-4.79,4.86a3,3,0,0,1-2.09.92c-1.06,0-2.12,0-3.18,0a1,1,0,0,1-1-.48c-.24-.45.1-.72.37-1L26.17,10a9.51,9.51,0,0,0-6.9,1.32C17.51,12.5,15.77,13.78,14,15c-.2.14-.32.26-.34.39s.14.23.34.37c1.81,1.26,3.55,2.53,5.31,3.76a9.56,9.56,0,0,0,6.9,1.33l-2.7-2.63c-.27-.29-.61-.56-.37-1a1,1,0,0,1,1-.48c1.06,0,2.12,0,3.18,0a3,3,0,0,1,2.09.91c1.59,1.64,3.22,3.24,4.79,4.86.87.9.9,1.56,0,2.43-1.59,1.64-3.19,3.25-4.79,4.89a3,3,0,0,1-2.2.94c-1.11,0-2.19-.05-3.3-.07a.81.81,0,0,1-.79-.38c-.22-.38,0-.68.26-.94C24.3,28.48,25.14,27.66,26,26.63Z"/><path class="cls-1" d="M124.44,12.68a10.18,10.18,0,0,1,17.36,7.18c0,11.21-15.34,14-19.49,4A10.32,10.32,0,0,1,124.44,12.68Zm7.24.62c-8.38,0-8.38,13.13,0,13.13S140,13.3,131.68,13.3Z"/></svg>