<svg id="Слой_1" data-name="Слой 1" xmlns="http://www.w3.org/2000/svg" viewBox="0 0 314.26 40"><defs><style>.cls-1,.cls-2{fill:#9a9a9a;}.cls-2{fill-rule:evenodd;}</style></defs><path class="cls-1" d="M54.57,39.69V0H65V39.69Z"/><path class="cls-1" d="M99.07,7.29V39.53H89.61l-5.42-9c-.62-.93-2.48-5.11-3.41-7.28.15,1.24.62,5.73.62,7.13v9.14H72.25V7.29h9l5.27,9c.78,1.24,2.95,5.89,3.72,7.6-.15-1.86-.46-5-.46-6.36V7.44h9.3Z"/><path class="cls-1" d="M124.5,39.69h-9.15L101.86,0H113l5.27,17.21A63.47,63.47,0,0,1,120,23.88h0a37.92,37.92,0,0,1,2.17-7.76l5.58-16h10.7Z"/><path class="cls-1" d="M139.69,39.69V7.29h20.78l-.63,7.28H149.3v4.81H158v7H149.3v5.89h11.94v7.28H139.69Z"/><path class="cls-1" d="M192.87,7.29V39.53h-9.46l-5.27-9.14c-.62-.93-2.48-5.12-3.41-7.29.15,1.24.62,5.74.62,7.13v9.15H166.2V7.29h9l5.28,9c.77,1.24,2.94,5.89,3.72,7.6-.16-1.86-.47-5-.47-6.36V7.44h9.15Z"/><path class="cls-1" d="M221.71,14.73h-8.07v25H204v-25h-8.22V7.44h27Z"/><path class="cls-1" d="M252.71,7.29V29.46a11.19,11.19,0,0,1-.93,5.27C250.7,36.9,247.13,40,239.22,40c-6.35,0-9.61-1.86-11.31-3.57-2-2.17-2.17-4.34-2.17-7.28V7.29h9.61V28.22a5.23,5.23,0,0,0,.93,3.41,3.54,3.54,0,0,0,2.94,1.08c1.71,0,2.64-.46,3.11-1.08a6.19,6.19,0,0,0,.77-3.41V7.29Z"/><path class="cls-1" d="M277.36,39.69l-3.72-9.15c-.62-1.55-1.08-2.63-2-3.1a6.2,6.2,0,0,0-1.55-.46V39.69h-9.61V7.29h12.4c5.42,0,8.37,1.08,10.08,2.17a8,8,0,0,1,3.72,7.28A8.44,8.44,0,0,1,284,23.41a9.23,9.23,0,0,1-4.65,2.17,5.94,5.94,0,0,1,3.41,3.26l5.43,10.85Zm-5-19.07a4.25,4.25,0,0,0,2.79-.78,3.18,3.18,0,0,0,1.09-2.48,2.59,2.59,0,0,0-.62-2c-.78-.78-2.17-.78-3.26-.78h-2.17v6.21h2.17Z"/><path class="cls-1" d="M292.71,39.69V7.29h20.78l-.62,7.28H302.33v4.81H311v7h-8.68v5.89h11.93v7.28H292.71Z"/><path class="cls-1" d="M12.71,0V39.69H0V0Z"/><path class="cls-1" d="M41.86,0V21.86c-.15-.15-.15-.15-.15-.31C36.28,14.42,30.85,7.13,25.58,0H41.86Z"/><path class="cls-2" d="M25.43,39.69V18l.31.31c5.27,7,10.54,14.11,15.81,21.09,0,.15.16.15.16.31Z"/></svg>