<svg width="115" height="33" viewBox="0 0 115 33" fill="none" xmlns="http://www.w3.org/2000/svg">
<path d="M32.3995 29.9534C34.5216 31.2593 37.2539 29.7325 37.2539 27.2407L37.2539 11.5985C37.2539 8.64003 33.572 7.27985 31.6486 9.52777L24.9245 17.3864C23.8157 18.6824 21.8828 18.8749 20.5402 17.8231L10.7296 10.1376L5.23272 5.52312C3.16029 3.78335 -0.000332049 5.25674 -0.000332167 7.96261L-0.000333052 28.2175C-0.000333151 30.4759 2.2848 32.0169 4.37854 31.1705L20.9915 24.4547C21.9298 24.0754 22.9926 24.1646 23.8545 24.695L32.3995 29.9534Z" fill="black"/>
<path d="M44.5069 25.9407V13.7169H47.8223V25.9407H44.5069ZM52.479 25.9407V18.7279C52.479 18.0192 52.2512 17.4709 51.7957 17.0828C51.357 16.6779 50.8086 16.4755 50.1506 16.4755C49.712 16.4755 49.3155 16.5682 48.9612 16.7538C48.6068 16.9226 48.3285 17.1756 48.126 17.5131C47.9235 17.8505 47.8223 18.2555 47.8223 18.7279L46.5316 18.0952C46.5316 17.1503 46.734 16.332 47.139 15.6403C47.5608 14.9485 48.126 14.4171 48.8346 14.0459C49.5432 13.6578 50.3447 13.4638 51.2389 13.4638C52.0825 13.4638 52.8502 13.6578 53.5419 14.0459C54.2337 14.4171 54.782 14.9485 55.1869 15.6403C55.5919 16.3152 55.7943 17.1335 55.7943 18.0952V25.9407H52.479ZM60.451 25.9407V18.7279C60.451 18.0192 60.2232 17.4709 59.7677 17.0828C59.329 16.6779 58.7807 16.4755 58.1227 16.4755C57.7009 16.4755 57.3044 16.5682 56.9332 16.7538C56.5789 16.9226 56.3005 17.1756 56.098 17.5131C55.8956 17.8505 55.7943 18.2555 55.7943 18.7279L53.8962 18.2723C53.9637 17.2937 54.2252 16.4501 54.6808 15.7415C55.1363 15.016 55.7353 14.4592 56.4777 14.0712C57.22 13.6663 58.0468 13.4638 58.9578 13.4638C59.8689 13.4638 60.6872 13.6578 61.4127 14.0459C62.1382 14.4171 62.7119 14.957 63.1337 15.6656C63.5555 16.3742 63.7664 17.2178 63.7664 18.1964V25.9407H60.451ZM71.3129 26.1938C70.0813 26.1938 68.9677 25.9154 67.9723 25.3586C66.9937 24.7849 66.2091 24.0173 65.6186 23.0556C65.045 22.077 64.7581 20.9887 64.7581 19.7908C64.7581 18.5929 65.045 17.5215 65.6186 16.5767C66.1923 15.615 66.9768 14.8557 67.9723 14.299C68.9677 13.7253 70.0728 13.4385 71.2876 13.4385C72.5362 13.4385 73.6497 13.7253 74.6283 14.299C75.6237 14.8557 76.4083 15.615 76.9819 16.5767C77.5556 17.5215 77.8424 18.5929 77.8424 19.7908C77.8424 20.9887 77.5556 22.077 76.9819 23.0556C76.4083 24.0173 75.6237 24.7849 74.6283 25.3586C73.6497 25.9154 72.5446 26.1938 71.3129 26.1938ZM71.2876 23.1062C71.9119 23.1062 72.4602 22.9712 72.9326 22.7012C73.4219 22.4144 73.7931 22.0264 74.0462 21.5371C74.3162 21.0309 74.4511 20.4573 74.4511 19.8161C74.4511 19.175 74.3162 18.6098 74.0462 18.1205C73.7763 17.6312 73.4051 17.2516 72.9326 16.9816C72.4602 16.6948 71.9119 16.5514 71.2876 16.5514C70.6802 16.5514 70.1403 16.6948 69.6679 16.9816C69.1955 17.2516 68.8243 17.6312 68.5544 18.1205C68.2844 18.6098 68.1494 19.175 68.1494 19.8161C68.1494 20.4573 68.2844 21.0309 68.5544 21.5371C68.8243 22.0264 69.1955 22.4144 69.6679 22.7012C70.1403 22.9712 70.6802 23.1062 71.2876 23.1062ZM82.6937 25.9407L77.303 13.7169H80.9474L84.8195 23.7895H83.0227L86.9201 13.7169H90.4379L85.0726 25.9407H82.6937ZM96.5571 26.1938C95.2749 26.1938 94.136 25.9238 93.1406 25.3839C92.1451 24.8271 91.3521 24.0679 90.7616 23.1062C90.1879 22.1445 89.9011 21.0478 89.9011 19.8161C89.9011 18.6013 90.1795 17.5215 90.7363 16.5767C91.3099 15.615 92.0861 14.8557 93.0646 14.299C94.0432 13.7253 95.1315 13.4385 96.3294 13.4385C97.5104 13.4385 98.548 13.7084 99.4423 14.2483C100.353 14.7714 101.062 15.4969 101.568 16.4248C102.091 17.3359 102.353 18.3736 102.353 19.5377C102.353 19.7571 102.336 19.9848 102.302 20.221C102.285 20.4404 102.243 20.6935 102.176 20.9803L91.9005 21.0056V18.5254L100.632 18.5001L99.2904 19.5377C99.2567 18.8122 99.1217 18.2048 98.8855 17.7155C98.6662 17.2263 98.3371 16.8551 97.8985 16.602C97.4767 16.332 96.9536 16.1971 96.3294 16.1971C95.6714 16.1971 95.0977 16.3489 94.6084 16.6526C94.1191 16.9394 93.7395 17.3528 93.4696 17.8927C93.2165 18.4157 93.0899 19.04 93.0899 19.7655C93.0899 20.5079 93.2249 21.1574 93.4949 21.7142C93.7817 22.2541 94.1866 22.6759 94.7097 22.9796C95.2327 23.2665 95.8401 23.4099 96.5318 23.4099C97.1561 23.4099 97.7213 23.3086 98.2275 23.1062C98.7336 22.8868 99.1723 22.5663 99.5435 22.1445L101.492 24.0932C100.902 24.7849 100.176 25.308 99.3157 25.6623C98.4721 26.0166 97.5526 26.1938 96.5571 26.1938ZM102.657 24.0426L109.136 15.615H113.134L106.655 24.0426H102.657ZM102.657 25.9407V24.0426L105.289 23.0556H112.982V25.9407H102.657ZM103.112 16.602V13.7169H113.134V15.615L110.477 16.602H103.112Z" fill="black"/>
</svg>
