<svg width="31" height="22" viewBox="0 0 31 22" fill="none" xmlns="http://www.w3.org/2000/svg">
<path d="M16.6826 10.2556L29.5384 0.483522C29.0612 0.178156 28.481 0 27.875 0H3.1177C2.53751 0 2.0088 0.152683 1.54462 0.432653L14.3101 10.2556C15.0064 10.8027 15.9735 10.8027 16.6826 10.2556ZM0.0746369 2.51934C0.0423617 2.65751 -0.138439 19.1011 0.216456 19.9768L10.0936 10.2429L0.0746369 2.51934ZM15.4964 13.2076C13.5239 13.2076 12.4221 11.9722 12.1438 11.808L2.03461 21.7964C2.36988 21.9363 2.73088 22 3.1177 22H27.875C28.1329 22 28.3908 21.9618 28.6229 21.8982L18.6039 12.0115C18.3724 12.1417 17.4009 13.2076 15.4964 13.2076ZM30.9438 2.6339L20.667 10.4465L30.6473 20.2949C31.1767 19.2498 30.9568 2.76129 30.9438 2.6339Z" fill="white"/>
</svg>
