<svg width="209" height="48" viewBox="0 0 209 48" fill="none" xmlns="http://www.w3.org/2000/svg">
<path d="M0 0.454544H15.7273L26.5455 26.8182H27.0909L37.9091 0.454544H53.6364V47H41.2727V20.0909H40.9091L30.5455 46.6364H23.0909L12.7273 19.9091H12.3636V47H0V0.454544ZM76.625 47.6364C72.8371 47.6364 69.5947 46.8864 66.8977 45.3864C64.2008 43.8712 62.1326 41.7652 60.6932 39.0682C59.2538 36.3561 58.5341 33.2121 58.5341 29.6364C58.5341 26.0606 59.2538 22.9242 60.6932 20.2273C62.1326 17.5152 64.2008 15.4091 66.8977 13.9091C69.5947 12.3939 72.8371 11.6364 76.625 11.6364C80.4129 11.6364 83.6553 12.3939 86.3523 13.9091C89.0492 15.4091 91.1174 17.5152 92.5568 20.2273C93.9962 22.9242 94.7159 26.0606 94.7159 29.6364C94.7159 33.2121 93.9962 36.3561 92.5568 39.0682C91.1174 41.7652 89.0492 43.8712 86.3523 45.3864C83.6553 46.8864 80.4129 47.6364 76.625 47.6364ZM76.7159 38.3636C77.7765 38.3636 78.6932 38.0076 79.4659 37.2955C80.2386 36.5833 80.8371 35.5682 81.2614 34.25C81.6856 32.9318 81.8977 31.3636 81.8977 29.5455C81.8977 27.7121 81.6856 26.1439 81.2614 24.8409C80.8371 23.5227 80.2386 22.5076 79.4659 21.7955C78.6932 21.0833 77.7765 20.7273 76.7159 20.7273C75.5947 20.7273 74.6326 21.0833 73.8295 21.7955C73.0265 22.5076 72.4129 23.5227 71.9886 24.8409C71.5644 26.1439 71.3523 27.7121 71.3523 29.5455C71.3523 31.3636 71.5644 32.9318 71.9886 34.25C72.4129 35.5682 73.0265 36.5833 73.8295 37.2955C74.6326 38.0076 75.5947 38.3636 76.7159 38.3636ZM133.926 12.0909L122.199 47H107.653L95.9261 12.0909H109.108L114.744 35.1818H115.108L120.744 12.0909H133.926ZM153.159 47.6364C149.432 47.6364 146.22 46.9242 143.523 45.5C140.841 44.0606 138.773 42 137.318 39.3182C135.879 36.6212 135.159 33.3939 135.159 29.6364C135.159 26.0303 135.886 22.8788 137.341 20.1818C138.795 17.4848 140.848 15.3864 143.5 13.8864C146.152 12.3864 149.28 11.6364 152.886 11.6364C155.523 11.6364 157.909 12.0455 160.045 12.8636C162.182 13.6818 164.008 14.8712 165.523 16.4318C167.038 17.9773 168.205 19.8561 169.023 22.0682C169.841 24.2803 170.25 26.7727 170.25 29.5455V32.4545H139.068V25.5455H158.705C158.689 24.5455 158.432 23.6667 157.932 22.9091C157.447 22.1364 156.788 21.5379 155.955 21.1136C155.136 20.6742 154.205 20.4545 153.159 20.4545C152.144 20.4545 151.212 20.6742 150.364 21.1136C149.515 21.5379 148.833 22.1288 148.318 22.8864C147.818 23.6439 147.553 24.5303 147.523 25.5455V33C147.523 34.1212 147.758 35.1212 148.227 36C148.697 36.8788 149.371 37.5682 150.25 38.0682C151.129 38.5682 152.189 38.8182 153.432 38.8182C154.295 38.8182 155.083 38.697 155.795 38.4545C156.523 38.2121 157.144 37.8636 157.659 37.4091C158.174 36.9394 158.553 36.3788 158.795 35.7273H170.25C169.856 38.1515 168.924 40.2576 167.455 42.0455C165.985 43.8182 164.038 45.197 161.614 46.1818C159.205 47.1515 156.386 47.6364 153.159 47.6364ZM207.278 23.4545H195.733C195.672 22.7424 195.422 22.1288 194.983 21.6136C194.544 21.0985 193.975 20.7045 193.278 20.4318C192.597 20.1439 191.839 20 191.006 20C189.93 20 189.006 20.197 188.233 20.5909C187.46 20.9848 187.081 21.5455 187.097 22.2727C187.081 22.7879 187.301 23.2652 187.756 23.7045C188.225 24.1439 189.127 24.4848 190.46 24.7273L197.551 26C201.127 26.6515 203.786 27.75 205.528 29.2955C207.286 30.8258 208.172 32.8788 208.188 35.4545C208.172 37.9394 207.43 40.0985 205.96 41.9318C204.506 43.75 202.513 45.1591 199.983 46.1591C197.468 47.1439 194.597 47.6364 191.369 47.6364C186.036 47.6364 181.862 46.5455 178.847 44.3636C175.847 42.1818 174.172 39.303 173.824 35.7273H186.278C186.445 36.8333 186.991 37.6894 187.915 38.2955C188.854 38.8864 190.036 39.1818 191.46 39.1818C192.612 39.1818 193.559 38.9848 194.301 38.5909C195.059 38.197 195.445 37.6364 195.46 36.9091C195.445 36.2424 195.112 35.7121 194.46 35.3182C193.824 34.9242 192.824 34.6061 191.46 34.3636L185.278 33.2727C181.718 32.6515 179.051 31.4697 177.278 29.7273C175.506 27.9848 174.627 25.7424 174.642 23C174.627 20.5758 175.263 18.5227 176.551 16.8409C177.854 15.1439 179.71 13.8561 182.119 12.9773C184.544 12.0833 187.415 11.6364 190.733 11.6364C195.778 11.6364 199.756 12.6818 202.665 14.7727C205.589 16.8636 207.127 19.7576 207.278 23.4545Z" fill="url(#paint0_radial_1205_486)"/>
<defs>
<radialGradient id="paint0_radial_1205_486" cx="0" cy="0" r="1" gradientUnits="userSpaceOnUse" gradientTransform="translate(140.753 62.5) rotate(25.0024) scale(143.142 494.031)">
<stop offset="0.038961" stop-color="#6416E4"/>
<stop offset="0.661891" stop-color="#D628DA" stop-opacity="0.76"/>
</radialGradient>
</defs>
</svg>
