<svg width="128" height="62" viewBox="0 0 128 62" fill="none" xmlns="http://www.w3.org/2000/svg">
<path d="M46.0909 24.7273C46.0909 29.9091 45.0833 34.2803 43.0682 37.8409C41.053 41.3864 38.3333 44.0758 34.9091 45.9091C31.4848 47.7273 27.6667 48.6364 23.4545 48.6364C19.2121 48.6364 15.3788 47.7197 11.9545 45.8864C8.54545 44.0379 5.83333 41.3409 3.81818 37.7955C1.81818 34.2348 0.818182 29.8788 0.818182 24.7273C0.818182 19.5455 1.81818 15.1818 3.81818 11.6364C5.83333 8.07576 8.54545 5.38636 11.9545 3.56818C15.3788 1.73485 19.2121 0.81818 23.4545 0.81818C27.6667 0.81818 31.4848 1.73485 34.9091 3.56818C38.3333 5.38636 41.053 8.07576 43.0682 11.6364C45.0833 15.1818 46.0909 19.5455 46.0909 24.7273ZM33.0909 24.7273C33.0909 21.9394 32.7197 19.5909 31.9773 17.6818C31.25 15.7576 30.1667 14.303 28.7273 13.3182C27.303 12.3182 25.5455 11.8182 23.4545 11.8182C21.3636 11.8182 19.5985 12.3182 18.1591 13.3182C16.7348 14.303 15.6515 15.7576 14.9091 17.6818C14.1818 19.5909 13.8182 21.9394 13.8182 24.7273C13.8182 27.5152 14.1818 29.8712 14.9091 31.7955C15.6515 33.7045 16.7348 35.1591 18.1591 36.1591C19.5985 37.1439 21.3636 37.6364 23.4545 37.6364C25.5455 37.6364 27.303 37.1439 28.7273 36.1591C30.1667 35.1591 31.25 33.7045 31.9773 31.7955C32.7197 29.8712 33.0909 27.5152 33.0909 24.7273ZM52.1193 61.0909V13.0909H64.5739V19.1818H64.8466C65.3011 18 65.9678 16.9167 66.8466 15.9318C67.7254 14.9318 68.8163 14.1364 70.1193 13.5455C71.4223 12.9394 72.9375 12.6364 74.6648 12.6364C76.9678 12.6364 79.1572 13.25 81.233 14.4773C83.3239 15.7045 85.0208 17.6364 86.3239 20.2727C87.642 22.9091 88.3011 26.3333 88.3011 30.5455C88.3011 34.5758 87.6723 37.9167 86.4148 40.5682C85.1723 43.2197 83.5057 45.197 81.4148 46.5C79.339 47.803 77.0587 48.4545 74.5739 48.4545C72.9375 48.4545 71.4754 48.1894 70.1875 47.6591C68.9148 47.1136 67.8239 46.3788 66.9148 45.4545C66.0208 44.5152 65.3314 43.4545 64.8466 42.2727H64.6648V61.0909H52.1193ZM64.392 30.5455C64.392 32.2424 64.6117 33.7121 65.0511 34.9545C65.5057 36.1818 66.142 37.1364 66.9602 37.8182C67.7936 38.4848 68.786 38.8182 69.9375 38.8182C71.089 38.8182 72.0663 38.4924 72.8693 37.8409C73.6875 37.1742 74.3087 36.2273 74.733 35C75.1723 33.7576 75.392 32.2727 75.392 30.5455C75.392 28.8182 75.1723 27.3409 74.733 26.1136C74.3087 24.8712 73.6875 23.9242 72.8693 23.2727C72.0663 22.6061 71.089 22.2727 69.9375 22.2727C68.786 22.2727 67.7936 22.6061 66.9602 23.2727C66.142 23.9242 65.5057 24.8712 65.0511 26.1136C64.6117 27.3409 64.392 28.8182 64.392 30.5455ZM110.284 48.6364C106.557 48.6364 103.345 47.9242 100.648 46.5C97.9659 45.0606 95.8977 43 94.4432 40.3182C93.0038 37.6212 92.2841 34.3939 92.2841 30.6364C92.2841 27.0303 93.0114 23.8788 94.4659 21.1818C95.9205 18.4848 97.9735 16.3864 100.625 14.8864C103.277 13.3864 106.405 12.6364 110.011 12.6364C112.648 12.6364 115.034 13.0455 117.17 13.8636C119.307 14.6818 121.133 15.8712 122.648 17.4318C124.163 18.9773 125.33 20.8561 126.148 23.0682C126.966 25.2803 127.375 27.7727 127.375 30.5455V33.4545H96.1932V26.5455H115.83C115.814 25.5455 115.557 24.6667 115.057 23.9091C114.572 23.1364 113.913 22.5379 113.08 22.1136C112.261 21.6742 111.33 21.4545 110.284 21.4545C109.269 21.4545 108.337 21.6742 107.489 22.1136C106.64 22.5379 105.958 23.1288 105.443 23.8864C104.943 24.6439 104.678 25.5303 104.648 26.5455V34C104.648 35.1212 104.883 36.1212 105.352 37C105.822 37.8788 106.496 38.5682 107.375 39.0682C108.254 39.5682 109.314 39.8182 110.557 39.8182C111.42 39.8182 112.208 39.697 112.92 39.4545C113.648 39.2121 114.269 38.8636 114.784 38.4091C115.299 37.9394 115.678 37.3788 115.92 36.7273H127.375C126.981 39.1515 126.049 41.2576 124.58 43.0455C123.11 44.8182 121.163 46.197 118.739 47.1818C116.33 48.1515 113.511 48.6364 110.284 48.6364Z" fill="url(#paint0_radial_1205_487)"/>
<defs>
<radialGradient id="paint0_radial_1205_487" cx="0" cy="0" r="1" gradientUnits="userSpaceOnUse" gradientTransform="translate(87.0864 63.5) rotate(36.9627) scale(100.616 435.56)">
<stop offset="0.038961" stop-color="#6416E4"/>
<stop offset="0.661891" stop-color="#D628DA" stop-opacity="0.76"/>
</radialGradient>
</defs>
</svg>
