<svg id="Слой_1" data-name="Слой 1" xmlns="http://www.w3.org/2000/svg" xmlns:xlink="http://www.w3.org/1999/xlink" viewBox="0 0 135 30"><defs><style>.cls-1{fill-rule:evenodd;fill:url(#Безымянный_градиент_11);}</style><linearGradient id="Безымянный_градиент_11" x1="10.27" y1="-17.2" x2="120.05" y2="46.18" gradientUnits="userSpaceOnUse"><stop offset="0" stop-color="#e7d0fc"/><stop offset="0.11" stop-color="#cbc8fc"/><stop offset="0.24" stop-color="#cae9fd"/><stop offset="0.42" stop-color="#c0c0fb"/><stop offset="0.7" stop-color="#f9bfcd"/><stop offset="0.87" stop-color="#fbdfd1"/><stop offset="1" stop-color="#faccce"/></linearGradient></defs><path class="cls-1" d="M3.12,27.28A9.18,9.18,0,0,1,0,20V.58H5.7v19c0,3,1.71,4.91,5.41,4.91s5.41-1.9,5.41-4.91V.58h5.74V20a9.18,9.18,0,0,1-3.12,7.29,11.76,11.76,0,0,1-8,2.72A11.73,11.73,0,0,1,3.12,27.28ZM46.69.58V6H38.83v23.4H33.08V6H25.26V.58ZM62,24.44A9.13,9.13,0,0,0,71.41,15,9.41,9.41,0,1,0,52.6,15,9.15,9.15,0,0,0,62,24.44ZM62,30a14.77,14.77,0,0,1-10.74-4.33A14.54,14.54,0,0,1,46.9,15,14.39,14.39,0,0,1,51.27,4.37a15.37,15.37,0,0,1,21.47,0A14.23,14.23,0,0,1,77.15,15a14.38,14.38,0,0,1-4.41,10.67A14.77,14.77,0,0,1,62,30ZM86.93,5.89v8.53h5.91a4.15,4.15,0,0,0,4-4.28,4.12,4.12,0,0,0-4-4.25ZM97.17,29.42l-5.87-10H86.93v10H81.19V.58H92.84a9.38,9.38,0,0,1,6.87,2.8,9.2,9.2,0,0,1,2.83,6.76,9.37,9.37,0,0,1-5.62,8.4l6.45,10.88ZM135,13.93v2.22a13.23,13.23,0,0,1-4,10A14.32,14.32,0,0,1,120.68,30a15.36,15.36,0,0,1-11.19-4.33A14.4,14.4,0,0,1,105.08,15a14.54,14.54,0,0,1,4.37-10.67A15.53,15.53,0,0,1,133,6.72l-4.91,2.8a9,9,0,0,0-7.82-4,9.25,9.25,0,0,0-6.87,2.72,9.14,9.14,0,0,0-2.66,6.8,9.15,9.15,0,0,0,2.71,6.76,10,10,0,0,0,7.24,2.64c4.45,0,7.45-2.06,8.48-5.48h-8.82v-5Z"/></svg>