<svg id="Слой_1" data-name="Слой 1" xmlns="http://www.w3.org/2000/svg" viewBox="0 0 197.14 40"><defs><style>.cls-1{fill:#9a9a9a;}</style></defs><path class="cls-1" d="M32.7,7,17.78,40H0V7H8.73V32.22h3.33L22.86,7Z"/><path class="cls-1" d="M47.46,40c-4.92,0-8.89-1.43-11.9-4.44A15.67,15.67,0,0,1,31,24,18.7,18.7,0,0,1,50,5.24c4.76,0,8.73,1.43,11.75,4.44A15.35,15.35,0,0,1,66.19,21,19.53,19.53,0,0,1,66,23.33l-.16,1.11H40.16a8.46,8.46,0,0,0,2.22,5.72,6.82,6.82,0,0,0,5.24,2.06,10.25,10.25,0,0,0,6.19-1.9,10.67,10.67,0,0,0,1.9-1.91h9.85a22.83,22.83,0,0,1-3.81,5.72A19.53,19.53,0,0,1,47.46,40ZM41.11,19.05H56.83a7.22,7.22,0,0,0-2.39-4.45,6.9,6.9,0,0,0-4.6-1.74C45.87,12.86,43,14.92,41.11,19.05Z"/><path class="cls-1" d="M85.87,40a16.58,16.58,0,0,1-11.58-4.29c-3-2.85-4.61-6.66-4.61-11.58a18.24,18.24,0,0,1,5.56-13.34A18.11,18.11,0,0,1,88.41,5.24c6.19,0,10.64,2.22,13.34,6.51a16.13,16.13,0,0,1,2.38,6.5H95.24A14.49,14.49,0,0,0,94,15.56a7.17,7.17,0,0,0-5.87-2.7A8.26,8.26,0,0,0,81.75,16,12.1,12.1,0,0,0,78.89,24,8.19,8.19,0,0,0,81,30a7.2,7.2,0,0,0,5.24,2.22,7.91,7.91,0,0,0,6.19-2.54,10,10,0,0,0,1.75-2.54h9.2a22.67,22.67,0,0,1-3.65,6.35A17.43,17.43,0,0,1,85.87,40Z"/><path class="cls-1" d="M107.14,15.71l1.43-8.57h4.13L114,0h9l-1.27,7.14H131l-1.43,8.57h-9.2l-2.86,16.51h9.68L125.87,40H107l4.29-24.13h-4.13Z"/><path class="cls-1" d="M148.73,40c-4.92,0-8.89-1.43-11.9-4.44a14.85,14.85,0,0,1-4.61-11.27A17.78,17.78,0,0,1,137.94,11,18.55,18.55,0,0,1,151.59,5.4c4.92,0,8.89,1.43,11.9,4.44a14.85,14.85,0,0,1,4.61,11.27,17.76,17.76,0,0,1-5.72,13.33A19.17,19.17,0,0,1,148.73,40Zm.48-7.78a9.15,9.15,0,0,0,7-3,11.47,11.47,0,0,0,2.86-8.1,8.31,8.31,0,0,0-2.22-6,7.78,7.78,0,0,0-5.72-2.22,9.13,9.13,0,0,0-7,3,11.45,11.45,0,0,0-2.86,8.1,8.27,8.27,0,0,0,2.22,6A7.78,7.78,0,0,0,149.21,32.22Z"/><path class="cls-1" d="M169.21,40l5.71-33h8.73L183,10.16H184L186.67,7h10.47l-1.58,8.73h-6.51a7.68,7.68,0,0,0-7.62,6.35l-.16.64L178.1,39.84h-8.89Z"/></svg>