<svg id="Слой_1" data-name="Слой 1" xmlns="http://www.w3.org/2000/svg" viewBox="0 0 277.65 40"><defs><style>.cls-1,.cls-2{fill:#9a9a9a;}.cls-1{fill-rule:evenodd;}</style></defs><path class="cls-1" d="M50.17,16.47V31.88h7.59V19.67A3.89,3.89,0,0,1,58.35,18a2.14,2.14,0,0,1,2.25-1.07A2.45,2.45,0,0,1,63,19.31V31.76h7.6V24.65c0-6,0-7.24-.12-7.83a7.55,7.55,0,0,0-2.26-5,6.77,6.77,0,0,0-3.91-1.9,10.21,10.21,0,0,0-2.73.12A6.22,6.22,0,0,0,58.11,12l-.59.47V1.05H49.93V16.47ZM130.81,1.28c-.23.48-7.94,19.1-7.94,19.1h9l4-9.61c2.26-5.33,4-9.72,4-9.72h-9ZM33.56,10.06a10.32,10.32,0,0,0-4.27,1.54,10.88,10.88,0,0,0-4.74,7.83,13.15,13.15,0,0,0,.24,4.86,10.55,10.55,0,0,0,6.64,7.59,8.31,8.31,0,0,0,3.08.48,5.82,5.82,0,0,0,1.78-.12,6.94,6.94,0,0,0,3.56-1.9l.47-.47v1.89h7.36V10.42H40.32v1.89L40,12a6.48,6.48,0,0,0-3.56-1.9,5.79,5.79,0,0,0-1.66-.12A6,6,0,0,1,33.56,10.06Zm48.39,0a12.23,12.23,0,0,0-5.69,2.37,11.42,11.42,0,0,0-3.92,10.44A10.86,10.86,0,0,0,80.65,32a12,12,0,0,0,3.08.36,11.09,11.09,0,0,0,5.34-1.19A10.61,10.61,0,0,0,95,22.87a15.34,15.34,0,0,0,0-3.32,10.81,10.81,0,0,0-2-5,16.35,16.35,0,0,0-2-2.14,11.11,11.11,0,0,0-5.69-2.37A15.35,15.35,0,0,0,82,10.06Zm24.19,0a10.75,10.75,0,0,0-5.57,2.37,11.61,11.61,0,0,0-2,2.14,12.27,12.27,0,0,0-2,5,15.35,15.35,0,0,0,0,3.32,11.09,11.09,0,0,0,8.89,9.37,8.4,8.4,0,0,0,2.49.24,10.61,10.61,0,0,0,5.46-1.31,11.14,11.14,0,0,0,5.69-12.33,11,11,0,0,0-9.6-8.78A15.45,15.45,0,0,0,106.14,10.06ZM0,10.54S2,15.4,4.51,21.33,9,32.12,9,32.12,8.3,33.9,7.35,36,5.69,39.83,5.69,40a37.24,37.24,0,0,0,4,0h4l6-14.59c3.32-8.06,6-14.59,6-14.71a31.8,31.8,0,0,0-4,0h-4L15.3,16.82C14.23,20.14,13.16,23,13.16,23s-1.06-2.85-2.49-6.17L8.3,10.65H4.15C1.9,10.54,0,10.54,0,10.54Zm37.24,6.4A4.43,4.43,0,0,1,40.44,20a7.14,7.14,0,0,1,0,2.26,4.09,4.09,0,0,1-3.08,3.08,7.14,7.14,0,0,1-2.26,0,4.48,4.48,0,0,1-3-2.49,4.64,4.64,0,0,1,.36-4.15A4.51,4.51,0,0,1,37.24,16.94Zm47.32.12a4,4,0,0,1,3.32,3.2,6.41,6.41,0,0,1,0,2.14,4.34,4.34,0,0,1-3,3.08,7.14,7.14,0,0,1-2.26,0,4.76,4.76,0,0,1-2.73-2.25,3.48,3.48,0,0,1-.35-1.9,3.88,3.88,0,0,1,.35-1.66,4.73,4.73,0,0,1,1.55-1.9A3.41,3.41,0,0,1,84.56,17.06Zm24.07,0a3.94,3.94,0,0,1,3.09,2.49,3.74,3.74,0,0,1,.35,1.66,4.87,4.87,0,0,1-.35,1.9A4.39,4.39,0,0,1,109,25.36a7.08,7.08,0,0,1-2.25,0,4.14,4.14,0,0,1-3-3.08,7.14,7.14,0,0,1,0-2.26,4.19,4.19,0,0,1,4-3.2C108,16.94,108.4,16.94,108.63,17.06Zm16.13,5.22a5,5,0,0,0-4.38,4,7.08,7.08,0,0,0,0,2.25,5,5,0,0,0,3.79,3.68c.24,0,.71.12,1.07.12a4.84,4.84,0,0,0,3.56-1.43,4.57,4.57,0,0,0,1.42-3.55A4.68,4.68,0,0,0,128,23.23,4.26,4.26,0,0,0,124.76,22.28Z"/><path class="cls-2" d="M156.28,6.3A4.15,4.15,0,0,1,158.71.2a2.67,2.67,0,0,1,1.43-.2,2.16,2.16,0,0,1,1.62.41,4.16,4.16,0,0,1,2,5.49,4.93,4.93,0,0,1-2,2,4.58,4.58,0,0,1-1.83.2,4.08,4.08,0,0,1-1.83-.2A4.61,4.61,0,0,1,156.28,6.3Z"/><path class="cls-2" d="M141,6.91c1-3.66,3.25-5.89,6.71-6.5a9.34,9.34,0,0,1,2.44,0,7.55,7.55,0,0,1,3.25.4L154,1v6.5a1.61,1.61,0,0,1-.61-.2,4.51,4.51,0,0,0-2.85-.2c-1.22.2-1.83,1.22-2,2.64v.61h5.29v6.1h-5.29V31.11h-7.73V16.47H138v-6.1h2.84V9A6.1,6.1,0,0,1,141,6.91Z"/><path class="cls-2" d="M175,12.2A6.62,6.62,0,0,1,178.64,10a23.71,23.71,0,0,1,3.86-.2,5.06,5.06,0,0,1,2.85,1.62,6,6,0,0,1,1.83,3c.4,1.43.4,2.24.4,9.56V30.9h-7.72V24.8c0-6.5,0-6.5-.61-7.32a2.8,2.8,0,0,0-3.66-.4,4.77,4.77,0,0,0-1,2v12h-7.72V10.37h7.72v2.44Z"/><path class="cls-2" d="M223.77,12.2A6.25,6.25,0,0,1,227.43,10a16.85,16.85,0,0,1,4.48-.2,7.66,7.66,0,0,1,2.23,1.62A5,5,0,0,1,235.36,13c.21.61.41,1.42.61,1.83.2.81.2.81.2,8.34V30.7h-7.72V24.6c0-6.91,0-6.71-.81-7.52a2.83,2.83,0,0,0-1.83-.61,2.23,2.23,0,0,0-2,1.22c-.4,1-.4,1-.4,7.32V30.9h-7.73V10.16h7.73v2.45Z"/><path class="cls-2" d="M239.83,15A10.47,10.47,0,0,1,247.56,10a13,13,0,0,1,6.71.61l.61.21v6.91a7,7,0,0,0-4.07-1c-2,.2-3.45,1-4.06,2.64a3.87,3.87,0,0,0-.21,1.63,3.4,3.4,0,0,0,.21,1.63,4,4,0,0,0,1.83,1.83,5.24,5.24,0,0,0,2.64.4,4.68,4.68,0,0,0,2.85-.81l.61-.41V30.5l-.82.4a8.87,8.87,0,0,1-4.27.82,8.17,8.17,0,0,1-2.64-.21A10.58,10.58,0,0,1,239,24.6a7.74,7.74,0,0,1-.61-3.86,11,11,0,0,1,.2-2.85C239,16.87,239.43,15.86,239.83,15Z"/><path class="cls-2" d="M156.07,31.11V10.37h7.73V31.11h-7.73Z"/><path class="cls-1" d="M198,9.76a10,10,0,0,0-4.06,1.62,11.18,11.18,0,0,0-4.27,7.12,17.46,17.46,0,0,0,0,4.68,11.67,11.67,0,0,0,2,4.88,8.82,8.82,0,0,0,5.49,3.45,9.8,9.8,0,0,0,4.27-.2,8.83,8.83,0,0,0,3.05-1.63l.81-.81v2H213V10.16h-7.73v2l-.61-.21a7.07,7.07,0,0,0-4.06-2A11.84,11.84,0,0,0,198,9.76Zm7.12,9.15a4.13,4.13,0,0,0-2.64-2.24c-2.24-.41-4.27.41-5.09,2.24a2.21,2.21,0,0,0-.4,1.62,3.55,3.55,0,0,0,.2,1.43,3.83,3.83,0,0,0,2.64,2.64,6.84,6.84,0,0,0,2.85,0A4.12,4.12,0,0,0,205.07,18.91Z"/><path class="cls-1" d="M265,10a11,11,0,0,0-9.14,12,10.85,10.85,0,0,0,1.83,5.28,9.78,9.78,0,0,0,6.5,4.27,27.69,27.69,0,0,0,5.9,0,10.31,10.31,0,0,0,5.28-2.84,22.31,22.31,0,0,0,1.63-2s-1.42-.61-3.25-1.22l-3.26-1.22-.4.41a3.36,3.36,0,0,1-1.83,1A3.8,3.8,0,0,1,263.42,23v-.4h14.23V20.74a7.11,7.11,0,0,0-.2-2.44,10.85,10.85,0,0,0-2.85-5.69A9.35,9.35,0,0,0,269.31,10,15.25,15.25,0,0,0,265,10Zm4.13,6.27a3.6,3.6,0,0,0-1.08-.58c-2-.4-3.86.41-4.47,1.83l-.06.12c-.36.7-.36.7,3.31.7h3.46v-.41a2.06,2.06,0,0,0-.81-1.42Z"/></svg>